<svg xmlns="http://www.w3.org/2000/svg" xmlns:xlink="http://www.w3.org/1999/xlink" width="500" zoomAndPan="magnify" viewBox="0 0 375 374.999991" height="500" preserveAspectRatio="xMidYMid meet" version="1.0"><defs><clipPath id="4f85c278ce"><path d="M 59.472656 59.472656 L 315.222656 59.472656 L 315.222656 315.222656 L 59.472656 315.222656 Z M 59.472656 59.472656 " clip-rule="nonzero"/></clipPath><clipPath id="67e58f3c05"><path d="M 187.5 59.472656 C 116.792969 59.472656 59.472656 116.792969 59.472656 187.5 C 59.472656 258.207031 116.792969 315.527344 187.5 315.527344 C 258.207031 315.527344 315.527344 258.207031 315.527344 187.5 C 315.527344 116.792969 258.207031 59.472656 187.5 59.472656 Z M 187.5 59.472656 " clip-rule="nonzero"/></clipPath><clipPath id="249ecef424"><path d="M 43 264 L 111 264 L 111 332 L 43 332 Z M 43 264 " clip-rule="nonzero"/></clipPath><clipPath id="939acb808a"><path d="M 90.960938 264.707031 L 110.289062 284.035156 L 62.445312 331.878906 L 43.117188 312.550781 Z M 90.960938 264.707031 " clip-rule="nonzero"/></clipPath></defs><g clip-path="url(#4f85c278ce)"><g clip-path="url(#67e58f3c05)"><path stroke-linecap="butt" transform="matrix(0.75, 0, 0, 0.75, 59.472411, 59.472406)" fill="none" stroke-linejoin="miter" d="M 170.703463 0.000333007 C 76.427415 0.000333007 0.000327007 76.427421 0.000327007 170.703469 C 0.000327007 264.979517 76.427415 341.406605 170.703463 341.406605 C 264.979511 341.406605 341.406599 264.979517 341.406599 170.703469 C 341.406599 76.427421 264.979511 0.000333007 170.703463 0.000333007 Z M 170.703463 0.000333007 " stroke="#f9f9ff" stroke-width="80" stroke-opacity="1" stroke-miterlimit="4"/></g></g><g clip-path="url(#249ecef424)"><g clip-path="url(#939acb808a)"><path fill="#f9f9ff" d="M 90.960938 264.707031 L 110.289062 284.035156 L 62.421875 331.902344 L 43.09375 312.574219 Z M 90.960938 264.707031 " fill-opacity="1" fill-rule="nonzero"/></g></g></svg>