<?xml version="1.0" encoding="UTF-8"?>
<svg version="1.1" xmlns="http://www.w3.org/2000/svg" width="1080" height="1080">
<path d="M0 0 C1.34384766 0.12375 1.34384766 0.12375 2.71484375 0.25 C20.21292906 2.45738001 33.23075516 11.48018909 44 25 C46.35277524 28.7735748 48.31076291 32.68861361 50.25 36.6875 C51.36640616 38.90795541 52.48628149 41.12666951 53.609375 43.34375 C54.17076172 44.45621094 54.73214844 45.56867188 55.31054688 46.71484375 C59.90127731 55.64155888 64.97138763 64.31489812 70 73 C70.54688477 73.94536621 71.09376953 74.89073242 71.65722656 75.86474609 C85.70531282 100.07150425 100.81953955 123.87838233 118 146 C119.09013249 147.42035136 120.17994996 148.84094452 121.26953125 150.26171875 C127.86059727 158.82739221 134.52989594 167.30532017 141.64257812 175.44580078 C142.5908867 176.53157999 143.53453405 177.62144009 144.47460938 178.71435547 C145.94996403 180.42494617 147.44095128 182.12044375 148.9375 183.8125 C149.38633545 184.33505371 149.8351709 184.85760742 150.29760742 185.39599609 C151.71186874 187.01832762 151.71186874 187.01832762 154 189 C158.0587571 189.45723328 158.0587571 189.45723328 160.375 186.76171875 C161.259007 185.74473899 162.13342972 184.71937798 163 183.6875 C180.75047096 163.46867934 203.14843775 147.20800966 226.63964844 134.29980469 C228.93976256 133.03317172 231.22353894 131.74023185 233.5078125 130.4453125 C294.31576672 96.60265378 370.90824848 90.68641627 437.35888672 109.234375 C453.47859415 113.90727226 468.91981974 119.63540527 484 127 C484.76554199 127.36786621 485.53108398 127.73573242 486.31982422 128.11474609 C505.78368238 137.55139279 523.85845986 149.62104183 540 164 C541.76577194 165.40223066 543.53659962 166.79811912 545.3125 168.1875 C550.39150684 172.31701892 555.04350631 176.82721395 559.6875 181.4375 C560.40784424 182.14865967 561.12818848 182.85981934 561.87036133 183.5925293 C562.53575928 184.26195557 563.20115723 184.93138184 563.88671875 185.62109375 C564.48701904 186.2236499 565.08731934 186.82620605 565.70581055 187.44702148 C567 189 567 189 567 191 C577.32231191 182.60018171 585.8694709 172.47748595 594 162 C595.04891036 160.66882244 596.09844359 159.33813555 597.1484375 158.0078125 C617.34932483 132.33762726 635.65492959 105.28718399 652 77 C652.51191895 76.11747559 653.02383789 75.23495117 653.55126953 74.32568359 C659.30858385 64.36788867 664.86566209 54.34295474 670.08154297 44.09008789 C679.85431084 24.89204741 679.85431084 24.89204741 687 17 C687.59425781 16.33613281 688.18851563 15.67226563 688.80078125 14.98828125 C699.64969521 4.27875377 716.06019069 0.12124377 730.81787109 -0.04980469 C745.23992743 0.27936285 758.79222646 7.03321943 769 17 C771.97869164 20.49171761 774.54962578 24.12206401 777 28 C777.495 28.77988281 777.99 29.55976562 778.5 30.36328125 C785.590661 42.9196601 786.31121634 58.38032844 783.1640625 72.16015625 C781.19224718 79.23581399 777.5689084 85.62419337 774 92 C773.37609375 93.12148437 772.7521875 94.24296875 772.109375 95.3984375 C761.32514504 113.95240794 748.98181547 131.92362936 736 149 C734.97893094 150.35919795 733.95810941 151.71858187 732.9375 153.078125 C718.64333985 172.03007895 703.41071707 190.29323321 687.10742188 207.55126953 C683.95968189 210.88366935 680.87525997 214.25911318 677.83203125 217.6875 C672.90157603 223.18204597 667.73571066 228.4159137 662.5065918 233.6237793 C660.93225845 235.1927236 659.36338411 236.76698558 657.79492188 238.34179688 C652.94548999 243.19447457 648.056077 247.9490092 642.83911133 252.41040039 C638.93292098 255.78663899 635.22126908 259.38088106 631.46875 262.92578125 C627.74685842 266.42374159 623.95884256 269.77202068 620 273 C620.24121582 273.68698975 620.48243164 274.37397949 620.73095703 275.08178711 C628.70721934 297.96186433 635.21188781 320.86876109 638 345 C638.14139404 346.14976318 638.14139404 346.14976318 638.28564453 347.32275391 C640.91908661 371.64558294 640.37077222 397.96674013 636 422 C635.81195801 423.04623535 635.62391602 424.0924707 635.43017578 425.17041016 C622.70174971 493.32875216 585.26743415 555.09847287 530 597 C529.3925293 597.46438477 528.78505859 597.92876953 528.15917969 598.40722656 C501.37312751 618.81766232 471.61143219 631.84302393 440 643 C440 730.12 440 817.24 440 907 C442.64 906.67 445.28 906.34 448 906 C449.46470865 905.91435138 450.93154974 905.85406865 452.39868164 905.83886719 C453.16553787 905.82940567 453.9323941 905.81994415 454.7224884 905.81019592 C455.52691879 905.80580002 456.33134918 905.80140411 457.16015625 905.796875 C458.01908981 905.78986069 458.87802338 905.78284637 459.76298523 905.77561951 C462.52954381 905.75816758 465.29588834 905.7517645 468.0625 905.75 C469.0071814 905.74932526 469.95186279 905.74865051 470.9251709 905.74795532 C485.15171017 905.76411567 499.00546422 906.22204838 513 909 C513.91539551 909.17692383 514.83079102 909.35384766 515.77392578 909.53613281 C550.34396562 916.38273896 587.83605223 930.12571998 609 960 C613.87828202 967.79378329 617.20443483 975.77733713 618 985 C618.06960938 985.68320312 618.13921875 986.36640625 618.2109375 987.0703125 C618.79515122 998.17037325 613.96183662 1008.83110581 606.8125 1017 C605.22643728 1018.68390425 603.62249261 1020.35116823 602 1022 C600.96359375 1023.05574219 600.96359375 1023.05574219 599.90625 1024.1328125 C572.98514488 1049.74804312 529.42270661 1052.88537749 494.30859375 1052.109375 C453.92901507 1050.77451289 411.84979442 1039.558477 380 1014 C379.3709375 1013.5359375 378.741875 1013.071875 378.09375 1012.59375 C371.60377215 1007.57320109 366.91656881 1000.49022645 362 994 C361.52691406 994.68964844 361.05382812 995.37929688 360.56640625 996.08984375 C343.61792995 1020.1745206 317.70442136 1033.63544973 290 1042 C289.2354248 1042.23412598 288.47084961 1042.46825195 287.68310547 1042.70947266 C239.71266064 1057.11806484 183.90153731 1057.42296866 138.70703125 1034.31640625 C131.59900321 1030.41554929 125.72989114 1025.71962252 120 1020 C119.42507813 1019.43667969 118.85015625 1018.87335937 118.2578125 1018.29296875 C110.24884604 1009.76528684 106.07946917 998.62808078 105.97265625 987.03125 C106.79598286 970.6491616 115.41446132 957.17809618 127 946 C158.08955681 918.93429591 203.11780908 905.76918415 243.8828125 905.8671875 C244.78192352 905.86623077 245.68103455 905.86527405 246.60739136 905.86428833 C248.49135407 905.86361327 250.37531921 905.86542003 252.25927734 905.86962891 C255.12472798 905.87499949 257.99002281 905.86965435 260.85546875 905.86328125 C262.69791701 905.86394191 264.54036517 905.86522281 266.3828125 905.8671875 C267.2288504 905.86516327 268.07488831 905.86313904 268.94656372 905.86105347 C269.75455414 905.86420563 270.56254456 905.86735779 271.39501953 905.87060547 C272.09321808 905.87140106 272.79141663 905.87219666 273.51077271 905.87301636 C277.02273807 906.05217322 280.51062301 906.56382788 284 907 C284.33 819.55 284.66 732.1 285 642 C281.7 641.34 278.4 640.68 275 640 C271.75490123 638.94622105 268.6108878 637.85686362 265.4375 636.625 C264.10054077 636.10824707 264.10054077 636.10824707 262.73657227 635.58105469 C230.23745221 622.71933099 201.33693171 604.85884149 175.54296875 581.3203125 C173.76533432 579.69832348 171.97518179 578.08999545 170.17578125 576.4921875 C164.6950448 571.60214434 159.69640158 566.6376635 155 561 C154.20335937 560.09121094 153.40671875 559.18242188 152.5859375 558.24609375 C135.68521949 538.8936996 121.9000167 517.24502517 111 494 C110.67580078 493.32356445 110.35160156 492.64712891 110.01757812 491.95019531 C76.47021725 421.68384197 79.76637618 345.24931325 104 273 C100.08860141 268.89990335 96.05368253 265.16919178 91.625 261.625 C87.24415513 258.10114667 83.24661542 254.39826303 79.36328125 250.3359375 C77.43348798 248.42847242 75.47939282 246.6732565 73.421875 244.91015625 C68.52629298 240.66272812 63.95200553 236.10256876 59.3815918 231.51196289 C57.93974779 230.06475615 56.49262884 228.62297974 55.04492188 227.18164062 C50.39204671 222.53215278 45.86174643 217.82535922 41.58032227 212.82983398 C38.97103568 209.808576 36.23012092 206.9117172 33.5 204 C28.90838542 199.07483993 24.37017932 194.12398754 20 189 C19.18273437 188.04996094 18.36546875 187.09992188 17.5234375 186.12109375 C11.35021484 178.91401957 5.38920922 171.56442762 -0.41015625 164.05371094 C-1.53100833 162.60582892 -2.65644412 161.1614896 -3.78515625 159.71972656 C-13.90280536 146.79219646 -23.25752 133.49433113 -32.21484375 119.73876953 C-33.8202656 117.27574679 -35.43838309 114.82180862 -37.0625 112.37109375 C-51.649623 90.26478292 -64.10365704 70.72350843 -59.33984375 43.18359375 C-55.12999344 28.03906731 -45.87762183 15.67507684 -32.375 7.625 C-22.81034589 2.2643573 -11.00754432 -1.26025552 0 0 Z " fill="#636BFE" transform="translate(178,22)"/>
<path d="M0 0 C1.34384766 0.12375 1.34384766 0.12375 2.71484375 0.25 C20.21292906 2.45738001 33.23075516 11.48018909 44 25 C46.35277524 28.7735748 48.31076291 32.68861361 50.25 36.6875 C51.36640616 38.90795541 52.48628149 41.12666951 53.609375 43.34375 C54.17076172 44.45621094 54.73214844 45.56867188 55.31054688 46.71484375 C59.90127731 55.64155888 64.97138763 64.31489812 70 73 C70.54688477 73.94536621 71.09376953 74.89073242 71.65722656 75.86474609 C85.70531282 100.07150425 100.81953955 123.87838233 118 146 C119.09013249 147.42035136 120.17994996 148.84094452 121.26953125 150.26171875 C127.86059727 158.82739221 134.52989594 167.30532017 141.64257812 175.44580078 C142.5908867 176.53157999 143.53453405 177.62144009 144.47460938 178.71435547 C145.94996403 180.42494617 147.44095128 182.12044375 148.9375 183.8125 C149.38633545 184.33505371 149.8351709 184.85760742 150.29760742 185.39599609 C151.71186874 187.01832762 151.71186874 187.01832762 154 189 C158.0587571 189.45723328 158.0587571 189.45723328 160.375 186.76171875 C161.259007 185.74473899 162.13342972 184.71937798 163 183.6875 C180.75047096 163.46867934 203.14843775 147.20800966 226.63964844 134.29980469 C228.93976256 133.03317172 231.22353894 131.74023185 233.5078125 130.4453125 C294.31576672 96.60265378 370.90824848 90.68641627 437.35888672 109.234375 C453.47859415 113.90727226 468.91981974 119.63540527 484 127 C484.76554199 127.36786621 485.53108398 127.73573242 486.31982422 128.11474609 C505.78368238 137.55139279 523.85845986 149.62104183 540 164 C541.76577194 165.40223066 543.53659962 166.79811912 545.3125 168.1875 C550.39150684 172.31701892 555.04350631 176.82721395 559.6875 181.4375 C560.40784424 182.14865967 561.12818848 182.85981934 561.87036133 183.5925293 C562.53575928 184.26195557 563.20115723 184.93138184 563.88671875 185.62109375 C564.48701904 186.2236499 565.08731934 186.82620605 565.70581055 187.44702148 C567 189 567 189 567 191 C577.32231191 182.60018171 585.8694709 172.47748595 594 162 C595.04891036 160.66882244 596.09844359 159.33813555 597.1484375 158.0078125 C617.34932483 132.33762726 635.65492959 105.28718399 652 77 C652.51191895 76.11747559 653.02383789 75.23495117 653.55126953 74.32568359 C659.30858385 64.36788867 664.86566209 54.34295474 670.08154297 44.09008789 C679.85431084 24.89204741 679.85431084 24.89204741 687 17 C687.59425781 16.33613281 688.18851563 15.67226563 688.80078125 14.98828125 C699.64969521 4.27875377 716.06019069 0.12124377 730.81787109 -0.04980469 C745.23992743 0.27936285 758.79222646 7.03321943 769 17 C771.97869164 20.49171761 774.54962578 24.12206401 777 28 C777.495 28.77988281 777.99 29.55976562 778.5 30.36328125 C785.590661 42.9196601 786.31121634 58.38032844 783.1640625 72.16015625 C781.19224718 79.23581399 777.5689084 85.62419337 774 92 C773.37609375 93.12148437 772.7521875 94.24296875 772.109375 95.3984375 C761.32514504 113.95240794 748.98181547 131.92362936 736 149 C734.97893094 150.35919795 733.95810941 151.71858187 732.9375 153.078125 C718.64333985 172.03007895 703.41071707 190.29323321 687.10742188 207.55126953 C683.95968189 210.88366935 680.87525997 214.25911318 677.83203125 217.6875 C672.90157603 223.18204597 667.73571066 228.4159137 662.5065918 233.6237793 C660.93225845 235.1927236 659.36338411 236.76698558 657.79492188 238.34179688 C652.94548999 243.19447457 648.056077 247.9490092 642.83911133 252.41040039 C638.93292098 255.78663899 635.22126908 259.38088106 631.46875 262.92578125 C627.74685842 266.42374159 623.95884256 269.77202068 620 273 C620.24121582 273.68698975 620.48243164 274.37397949 620.73095703 275.08178711 C628.70721934 297.96186433 635.21188781 320.86876109 638 345 C638.14139404 346.14976318 638.14139404 346.14976318 638.28564453 347.32275391 C640.91908661 371.64558294 640.37077222 397.96674013 636 422 C635.81195801 423.04623535 635.62391602 424.0924707 635.43017578 425.17041016 C622.70174971 493.32875216 585.26743415 555.09847287 530 597 C529.3925293 597.46438477 528.78505859 597.92876953 528.15917969 598.40722656 C501.37312751 618.81766232 471.61143219 631.84302393 440 643 C440 730.12 440 817.24 440 907 C442.64 906.67 445.28 906.34 448 906 C449.46470865 905.91435138 450.93154974 905.85406865 452.39868164 905.83886719 C453.16553787 905.82940567 453.9323941 905.81994415 454.7224884 905.81019592 C455.52691879 905.80580002 456.33134918 905.80140411 457.16015625 905.796875 C458.01908981 905.78986069 458.87802338 905.78284637 459.76298523 905.77561951 C462.52954381 905.75816758 465.29588834 905.7517645 468.0625 905.75 C469.0071814 905.74932526 469.95186279 905.74865051 470.9251709 905.74795532 C485.15171017 905.76411567 499.00546422 906.22204838 513 909 C513.91539551 909.17692383 514.83079102 909.35384766 515.77392578 909.53613281 C550.34396562 916.38273896 587.83605223 930.12571998 609 960 C613.87828202 967.79378329 617.20443483 975.77733713 618 985 C618.06960938 985.68320312 618.13921875 986.36640625 618.2109375 987.0703125 C618.79515122 998.17037325 613.96183662 1008.83110581 606.8125 1017 C605.22643728 1018.68390425 603.62249261 1020.35116823 602 1022 C600.96359375 1023.05574219 600.96359375 1023.05574219 599.90625 1024.1328125 C572.98514488 1049.74804312 529.42270661 1052.88537749 494.30859375 1052.109375 C453.92901507 1050.77451289 411.84979442 1039.558477 380 1014 C379.3709375 1013.5359375 378.741875 1013.071875 378.09375 1012.59375 C371.60377215 1007.57320109 366.91656881 1000.49022645 362 994 C361.52691406 994.68964844 361.05382812 995.37929688 360.56640625 996.08984375 C343.61792995 1020.1745206 317.70442136 1033.63544973 290 1042 C289.2354248 1042.23412598 288.47084961 1042.46825195 287.68310547 1042.70947266 C239.71266064 1057.11806484 183.90153731 1057.42296866 138.70703125 1034.31640625 C131.59900321 1030.41554929 125.72989114 1025.71962252 120 1020 C119.42507813 1019.43667969 118.85015625 1018.87335937 118.2578125 1018.29296875 C110.24884604 1009.76528684 106.07946917 998.62808078 105.97265625 987.03125 C106.79598286 970.6491616 115.41446132 957.17809618 127 946 C158.08955681 918.93429591 203.11780908 905.76918415 243.8828125 905.8671875 C244.78192352 905.86623077 245.68103455 905.86527405 246.60739136 905.86428833 C248.49135407 905.86361327 250.37531921 905.86542003 252.25927734 905.86962891 C255.12472798 905.87499949 257.99002281 905.86965435 260.85546875 905.86328125 C262.69791701 905.86394191 264.54036517 905.86522281 266.3828125 905.8671875 C267.2288504 905.86516327 268.07488831 905.86313904 268.94656372 905.86105347 C269.75455414 905.86420563 270.56254456 905.86735779 271.39501953 905.87060547 C272.09321808 905.87140106 272.79141663 905.87219666 273.51077271 905.87301636 C277.02273807 906.05217322 280.51062301 906.56382788 284 907 C284.33 819.55 284.66 732.1 285 642 C281.7 641.34 278.4 640.68 275 640 C271.75490123 638.94622105 268.6108878 637.85686362 265.4375 636.625 C264.10054077 636.10824707 264.10054077 636.10824707 262.73657227 635.58105469 C230.23745221 622.71933099 201.33693171 604.85884149 175.54296875 581.3203125 C173.76533432 579.69832348 171.97518179 578.08999545 170.17578125 576.4921875 C164.6950448 571.60214434 159.69640158 566.6376635 155 561 C154.20335937 560.09121094 153.40671875 559.18242188 152.5859375 558.24609375 C135.68521949 538.8936996 121.9000167 517.24502517 111 494 C110.67580078 493.32356445 110.35160156 492.64712891 110.01757812 491.95019531 C76.47021725 421.68384197 79.76637618 345.24931325 104 273 C100.08860141 268.89990335 96.05368253 265.16919178 91.625 261.625 C87.24415513 258.10114667 83.24661542 254.39826303 79.36328125 250.3359375 C77.43348798 248.42847242 75.47939282 246.6732565 73.421875 244.91015625 C68.52629298 240.66272812 63.95200553 236.10256876 59.3815918 231.51196289 C57.93974779 230.06475615 56.49262884 228.62297974 55.04492188 227.18164062 C50.39204671 222.53215278 45.86174643 217.82535922 41.58032227 212.82983398 C38.97103568 209.808576 36.23012092 206.9117172 33.5 204 C28.90838542 199.07483993 24.37017932 194.12398754 20 189 C19.18273437 188.04996094 18.36546875 187.09992188 17.5234375 186.12109375 C11.35021484 178.91401957 5.38920922 171.56442762 -0.41015625 164.05371094 C-1.53100833 162.60582892 -2.65644412 161.1614896 -3.78515625 159.71972656 C-13.90280536 146.79219646 -23.25752 133.49433113 -32.21484375 119.73876953 C-33.8202656 117.27574679 -35.43838309 114.82180862 -37.0625 112.37109375 C-51.649623 90.26478292 -64.10365704 70.72350843 -59.33984375 43.18359375 C-55.12999344 28.03906731 -45.87762183 15.67507684 -32.375 7.625 C-22.81034589 2.2643573 -11.00754432 -1.26025552 0 0 Z M-39 30 C-46.61726028 40.62831846 -49.23994315 50.95871559 -48 64 C-40.81313179 102.22802239 -0.18817021 145.73004825 24.59179688 174.36962891 C26.09418913 176.10904907 27.58638837 177.85690448 29.078125 179.60546875 C35.75892537 187.40804151 42.63836623 194.99038609 49.68359375 202.46484375 C52.56259615 205.52096507 55.37894005 208.62889551 58.1875 211.75 C63.21253609 217.24613323 68.43029815 222.53862145 73.6875 227.8125 C74.48373779 228.61333008 75.27997559 229.41416016 76.1003418 230.23925781 C80.30539648 234.43338573 84.58879613 238.46240677 89.09057617 242.33569336 C92.25065846 245.09010852 95.27180921 247.99027323 98.3125 250.875 C103.64292425 255.93133027 109.04963524 260.54892679 115.0234375 264.83984375 C117.78520578 267.85813992 117.93935183 269.9495685 118 274 C117.03125 277.15625 117.03125 277.15625 115.5 280.5 C108.40046516 296.94535745 103.90482353 314.35924876 101 332 C100.85046875 332.8544873 100.7009375 333.70897461 100.546875 334.58935547 C95.7764165 362.55925279 96.62406859 392.04880397 101 420 C101.10683105 420.74185547 101.21366211 421.48371094 101.32373047 422.24804688 C109.0360355 475.3857019 139.2361227 534.24440936 180.75 569.0625 C183.1106692 571.09529848 185.36705261 573.21414767 187.63037109 575.35375977 C193.75653513 581.121601 200.02739154 586.26421831 207 591 C207.9605127 591.66467285 207.9605127 591.66467285 208.94042969 592.34277344 C232.83906129 608.86760093 257.54770593 620.59800788 285.19360352 629.37084961 C285.90028168 629.59760376 286.60695984 629.82435791 287.33505249 630.0579834 C289.27947998 630.68051024 291.22694114 631.29353824 293.17456055 631.90600586 C296 633 296 633 297 635 C297.09521589 636.55108021 297.12735837 638.10622547 297.12863445 639.66022491 C297.1318589 640.64877456 297.13508335 641.63732421 297.1384055 642.65582991 C297.1368569 643.74977835 297.1353083 644.8437268 297.13371277 645.9708252 C297.13597833 647.12676823 297.13824388 648.28271127 297.14057809 649.47368288 C297.14583039 652.691959 297.14656007 655.91020018 297.14538372 659.12847924 C297.14518023 662.59545817 297.15069337 666.06242866 297.15544128 669.52940369 C297.16375945 676.32505801 297.16649664 683.12070366 297.16705366 689.91636264 C297.16752821 695.43737148 297.16957989 700.95837745 297.17275429 706.47938538 C297.18156355 722.11795975 297.18617316 737.75652724 297.18542381 753.39510411 C297.18536388 754.66059935 297.18536388 754.66059935 297.18530273 755.95166016 C297.18526185 756.79634851 297.18522097 757.64103687 297.18517885 758.51132184 C297.18477216 772.20919166 297.19434676 785.90703402 297.2084411 799.60489589 C297.22278488 813.65554502 297.22971241 827.70618073 297.22884732 841.75683737 C297.22851469 849.65097812 297.23129072 857.54509007 297.24202538 865.43922424 C297.25110408 872.15885381 297.25332736 878.87844153 297.24651595 885.59807456 C297.24323754 889.029167 297.24324128 892.46017903 297.2518692 895.89126396 C297.25951648 899.60397417 297.25499288 903.31646966 297.24723816 907.0291748 C297.25238172 908.12312325 297.25752529 909.2170717 297.26282471 910.34417009 C297.25822592 911.33271974 297.25362712 912.32126939 297.24888897 913.33977509 C297.24921502 914.62653995 297.24921502 914.62653995 297.24954766 915.93930006 C297 918 297 918 295 920 C289.96474323 920.62142534 284.78302291 919.94195775 279.77685547 919.2878418 C234.4465024 913.39539568 180.06270775 921.5901781 142.9375 950 C140.9365119 951.64040395 138.9558338 953.3060128 137 955 C136.09765625 955.75539063 135.1953125 956.51078125 134.265625 957.2890625 C126.50684182 964.31899029 120.39490695 973.71548591 118.40234375 984.12109375 C118.0739113 994.18826229 121.41543874 1002.53958262 128 1010 C128.49113281 1010.58394531 128.98226562 1011.16789062 129.48828125 1011.76953125 C146.37600602 1030.33345699 177.14088073 1037.3704446 201.20898438 1038.87109375 C220.66103203 1039.76950883 239.76345257 1039.21734068 259 1036 C259.7415332 1035.8772168 260.48306641 1035.75443359 261.24707031 1035.62792969 C291.89852423 1030.38700751 328.59002009 1017.86523519 348 992 C355.22331337 981.64173631 356.2975289 972.935292 356.26501465 960.52334595 C356.26858919 959.15668028 356.27304141 957.79001667 356.27829123 956.42335641 C356.29017315 952.68274861 356.2897782 948.94222865 356.28735614 945.20160651 C356.28693573 941.16211998 356.2980432 937.12266335 356.30781555 933.08319092 C356.32325181 926.08900426 356.33167594 919.09483773 356.33552551 912.10063553 C356.34127709 901.98607473 356.35986926 891.87156809 356.38196605 881.75703125 C356.41766229 865.34307525 356.44598817 848.9291162 356.46826172 832.51513672 C356.46959671 831.53328248 356.4709317 830.55142824 356.47230715 829.53982083 C356.483088 821.56978587 356.49351068 813.59975044 356.5039072 805.62971497 C356.51301961 798.65402199 356.52227123 791.67832922 356.53173828 784.70263672 C356.53306902 783.72016077 356.53439977 782.73768483 356.53577083 781.72543688 C356.55817248 765.36483869 356.58835049 749.00426379 356.62413073 732.64368951 C356.64582811 722.54895811 356.66042532 712.45426296 356.66596949 702.35950951 C356.67020521 695.45127712 356.68141247 688.54307932 356.69819343 681.63486607 C356.70762994 677.64477006 356.71370095 673.65473875 356.71113014 669.66463089 C356.70883022 666.01699045 356.71557405 662.3694863 356.72970897 658.72187357 C356.73484734 656.76725307 356.73005493 654.8126144 356.72498846 652.85799372 C356.73122056 651.70942468 356.73745265 650.56085563 356.7438736 649.37748146 C356.74566486 647.88143299 356.74566486 647.88143299 356.74749231 646.35516131 C357 644 357 644 359 642 C364.21187622 641.44554508 364.21187622 641.44554508 366.66858077 643.1738674 C368.51118961 645.70113154 368.37109511 647.41643838 368.36520767 650.53062153 C368.37034732 651.68793162 368.37548697 652.84524171 368.38078237 654.0376218 C368.37115995 655.31501938 368.36153754 656.59241696 368.35162354 657.90852356 C368.35204967 659.27469457 368.35381169 660.64086571 368.35679889 662.00703353 C368.36126563 665.77005258 368.34711566 669.53281087 368.33012652 673.29578578 C368.31513687 677.35124886 368.31751673 681.40670327 368.31809998 685.46218872 C368.31702282 692.49466479 368.30577021 699.52706509 368.28842926 706.55951881 C368.26168688 717.68266158 368.26356398 728.80571272 368.26971436 739.92887878 C368.27143713 743.73478788 368.27292406 747.54069702 368.27430344 751.34660625 C368.27464915 752.29785617 368.27499487 753.24910609 368.27535106 754.22918177 C368.27877429 765.062865 368.27504712 775.8965429 368.26904297 786.73022461 C368.26850091 787.72073048 368.26795884 788.71123635 368.26740035 789.73175754 C368.25804558 805.76235283 368.23274146 821.79289766 368.20414236 837.82346825 C368.17544912 854.28795127 368.17373226 870.75230326 368.19435859 887.21679801 C368.20603005 897.36739674 368.19538124 907.51748139 368.15574065 917.66801175 C368.13034989 924.63345246 368.13043074 931.59860305 368.15019974 938.56406078 C368.16078004 942.57818319 368.1601582 946.59145529 368.12856102 950.60548592 C368.09978436 954.28955535 368.10396928 957.97214606 368.13300177 961.65619989 C368.14010099 963.60125513 368.11303249 965.54634562 368.08424401 967.49120075 C368.25923087 980.81972268 374.15863694 991.11589267 383.359375 1000.55078125 C418.92382265 1033.53733254 472.19914557 1040.71003246 518.59423828 1039.36885071 C530.02204975 1038.93243951 540.99193319 1037.13093171 552 1034 C552.90814453 1033.74299316 553.81628906 1033.48598633 554.75195312 1033.22119141 C573.35565459 1027.74298647 591.02604548 1019.6164062 601.5546875 1002.74609375 C605.47723164 995.29325989 606.41276912 987.51461584 604.3125 979.31640625 C602.07434143 973.33865774 598.79229888 968.11012274 595 963 C594.40960937 962.19820312 593.81921875 961.39640625 593.2109375 960.5703125 C590.62070441 957.55905212 587.74638956 955.11688543 584.625 952.6875 C584.01213135 952.20966064 583.3992627 951.73182129 582.76782227 951.23950195 C576.52166554 946.47653832 569.96224518 942.61331712 563 939 C562.03449219 938.49082031 561.06898438 937.98164062 560.07421875 937.45703125 C543.08750722 929.06492079 524.60433319 924.14189181 506 921 C504.83855469 920.78730469 503.67710937 920.57460938 502.48046875 920.35546875 C491.22759959 918.34757554 480.10627071 917.81849411 468.6875 917.8125 C467.47126953 917.80025391 466.25503906 917.78800781 465.00195312 917.77539062 C457.57554651 917.76355886 450.48572034 918.33097588 443.15649414 919.53857422 C438.5388809 920.21359077 433.6272003 920.79690672 429 920 C426.85546023 916.78319034 426.74886105 915.95324921 426.74273109 912.25354862 C426.73305776 910.78003786 426.73305776 910.78003786 426.723189 909.27675921 C426.7278348 907.65392501 426.7278348 907.65392501 426.73257446 905.99830627 C426.72804335 904.85108705 426.72351224 903.70386783 426.71884382 902.52188438 C426.70835112 899.33249951 426.7068778 896.14325592 426.70923257 892.95385921 C426.70963997 889.51615897 426.69860899 886.07849263 426.68911743 882.64080811 C426.67249035 875.90410589 426.66700713 869.16743867 426.66589268 862.43071765 C426.66494309 856.95646617 426.66083728 851.48222626 426.65449142 846.00797844 C426.63687501 830.49611418 426.62765328 814.98427763 426.62915237 799.4724033 C426.62923228 798.63580464 426.6293122 797.79920599 426.62939453 796.93725586 C426.62947629 796.09963885 426.62955805 795.26202185 426.62964229 794.39902251 C426.6304555 780.81892904 426.61131025 767.23894641 426.5831178 753.65888501 C426.55441523 739.72344987 426.54057602 725.78806884 426.54230535 711.85260338 C426.54297012 704.02544758 426.5374397 696.19840799 426.51594925 688.37127876 C426.49777202 681.70805241 426.49336153 675.04499495 426.5069681 668.38175458 C426.51351517 664.98069741 426.51355303 661.57996458 426.4962616 658.17893791 C426.48092774 654.495224 426.49003947 650.81237146 426.50552368 647.12867737 C426.49523656 646.04901862 426.48494943 644.96935988 426.47435057 643.8569842 C426.5416195 636.65331455 426.5416195 636.65331455 428.83402061 633.38603115 C431.74016842 631.52635907 434.57085499 630.56591478 437.87109375 629.5546875 C439.25411712 629.11873742 440.63700577 628.68235975 442.01977539 628.24560547 C443.1018779 627.91082184 443.1018779 627.91082184 444.20584106 627.5692749 C458.41554051 623.14860043 471.83882909 618.00782045 485 611 C485.69754395 610.63729004 486.39508789 610.27458008 487.11376953 609.90087891 C506.17879224 599.9430324 523.48522988 587.20620839 539.19921875 572.578125 C541.40425128 570.54838794 543.6370898 568.60531566 545.9375 566.6875 C555.27199809 558.58071251 563.58828596 548.85974368 571 539 C571.46341797 538.39269043 571.92683594 537.78538086 572.40429688 537.15966797 C581.37550265 525.35172846 588.96055342 513.04236168 596 500 C596.37463379 499.3179248 596.74926758 498.63584961 597.13525391 497.93310547 C608.60870982 476.91907523 616.66336212 453.48273725 621.6875 430.125 C621.89028564 429.19284668 622.09307129 428.26069336 622.30200195 427.30029297 C625.44939654 411.9325968 626.33157302 396.65180241 626.26074219 380.99682617 C626.25004832 378.20013564 626.26069752 375.40409283 626.2734375 372.60742188 C626.28865019 355.35868586 625.19188142 338.24971195 621.4375 321.375 C621.05984497 319.64117065 621.05984497 319.64117065 620.67456055 317.87231445 C617.46809659 303.8051547 613.44823304 289.15471492 607.16796875 276.11328125 C605.7887613 272.43693228 605.68865946 270.695134 607 267 C609.2578125 264.69140625 609.2578125 264.69140625 612.125 262.5625 C616.16434607 259.45090051 619.81487435 256.30902321 623.35546875 252.65234375 C625.00841603 250.99154399 626.72251638 249.46377609 628.5 247.9375 C638.89970649 238.92706728 648.7584242 229.33697433 658.5 219.625 C659.75441895 218.37746948 659.75441895 218.37746948 661.03417969 217.10473633 C665.34336011 212.78475271 669.50604663 208.40114532 673.4609375 203.75341797 C675.06974924 201.92053632 676.75909906 200.20721596 678.5 198.5 C681.43494813 195.60383973 684.17728599 192.6007082 686.8671875 189.4765625 C688.54909757 187.52357535 690.24274906 185.58331535 691.9453125 183.6484375 C698.77934744 175.85940581 705.33422987 167.91758876 711.66601562 159.71630859 C712.98834372 158.01499701 714.32677053 156.32787549 715.671875 154.64453125 C756.20048844 107.1872248 756.20048844 107.1872248 772 50 C770.34099123 40.3526549 765.35090712 31.45445503 758 25 C757.28457031 24.28070313 757.28457031 24.28070313 756.5546875 23.546875 C748.04510784 15.40727707 736.95285523 12.66084243 725.515625 12.7890625 C715.92265297 13.36464082 708.50555416 16.05167296 701 22 C700.30003906 22.5259375 699.60007812 23.051875 698.87890625 23.59375 C689.85446411 30.82695126 685.45238722 41.83347282 680.3125 51.9375 C674.54809247 63.17166598 668.49175666 74.17018117 662 85 C661.48002441 85.8751123 660.96004883 86.75022461 660.42431641 87.65185547 C637.57345149 126.06477298 611.66497401 163.0209977 581.00878906 195.6496582 C578.83178194 197.97352692 576.75614917 200.30867737 574.78125 202.80859375 C572.62859179 205.45692983 571.65683997 205.87017072 568.33203125 206.52734375 C563.18512155 205.71276836 560.99646551 202.38535628 557.6875 198.5625 C556.35775076 197.08505495 555.02702654 195.6084868 553.6953125 194.1328125 C553.05883789 193.41770508 552.42236328 192.70259766 551.76660156 191.96582031 C545.96417465 185.5090567 539.67858909 179.53916764 533 174 C532.05125 173.21238281 531.1025 172.42476562 530.125 171.61328125 C508.61224044 154.09065984 484.81959019 140.08830624 459 130 C458.24428711 129.69610352 457.48857422 129.39220703 456.70996094 129.07910156 C427.52703063 117.36843531 396.13146035 111.77543797 364.74414062 111.86962891 C362.63404095 111.87497709 360.52415569 111.86965171 358.4140625 111.86328125 C345.63277795 111.85510016 332.95676957 112.31066505 320.375 114.75 C319.44824463 114.9255542 318.52148926 115.1011084 317.56665039 115.28198242 C280.78697547 122.39872026 244.69787238 134.99985813 214 157 C212.8759738 157.77745146 211.75092108 158.55342029 210.625 159.328125 C193.11117407 171.47742088 176.30873022 185.97162691 162.578125 202.30078125 C160.53862493 204.49677761 158.69301843 205.82916853 155.765625 206.55078125 C151.25419812 205.65231912 148.83954149 202.44311653 145.75 199.1875 C145.08250732 198.50115479 144.41501465 197.81480957 143.72729492 197.10766602 C139.31317373 192.51897203 135.15796302 187.78220209 131.21875 182.77734375 C129.15079967 180.18876508 127.00655742 177.70300367 124.81860352 175.21704102 C116.95002969 166.24643319 109.96284731 156.68103173 103 147 C102.52256348 146.3390332 102.04512695 145.67806641 101.55322266 144.99707031 C98.67773938 141.01499009 95.83195811 137.0131509 93 133 C92.27683594 131.98292969 91.55367187 130.96585937 90.80859375 129.91796875 C74.47387399 106.68701667 59.6838723 81.99323547 46.76953125 56.703125 C45.92539673 55.05509888 45.92539673 55.05509888 45.06420898 53.3737793 C43.97263058 51.23400797 42.88949755 49.08989781 41.81665039 46.94067383 C34.31056959 32.20044586 25.8504315 20.82167929 10 15 C-8.17024266 9.11688602 -26.96093949 15.4203224 -39 30 Z " fill="#252147" transform="translate(178,22)"/>
<path d="M0 0 C4.17761611 0.96007327 7.47702099 2.62628034 11.1484375 4.7421875 C56.22925428 29.43693588 106.9396083 41.10765108 158.1484375 41.0546875 C159.13142822 41.05441559 160.11441895 41.05414368 161.12719727 41.05386353 C175.10638984 41.0360402 188.90551758 40.7743208 202.7734375 38.8671875 C203.58425781 38.76535156 204.39507813 38.66351563 205.23046875 38.55859375 C243.78178243 33.70220742 283.39487039 21.28465383 316.7578125 1.09765625 C320.57126779 -0.45835206 322.83304743 -0.21308852 326.7734375 0.8671875 C328.7734375 3.8671875 328.7734375 3.8671875 328.8984375 6.7421875 C327.22248564 11.39760933 323.97012179 12.71795831 319.7734375 14.8671875 C318.06220703 15.76244141 318.06220703 15.76244141 316.31640625 16.67578125 C283.32452345 33.68168916 248.72646215 44.9141308 212.1484375 51.1171875 C211.18969727 51.28041504 210.23095703 51.44364258 209.24316406 51.61181641 C198.10019891 53.42269288 187.04522751 54.02403238 175.765625 54.03515625 C174.56011993 54.03848465 173.35461487 54.04181305 172.11257935 54.04524231 C169.57635882 54.05027364 167.04013176 54.05265182 164.50390625 54.05249023 C160.67957305 54.05466976 156.8555321 54.07284773 153.03125 54.09179688 C134.44756143 54.13632473 116.96453234 52.77636071 98.7109375 49.1796875 C98.05655701 49.05190918 97.40217651 48.92413086 96.72796631 48.79248047 C65.60429073 42.6771092 17.13880907 32.23255907 -6.2265625 8.8671875 C-6.5390625 5.3671875 -6.5390625 5.3671875 -6.2265625 1.8671875 C-3.2265625 -0.1328125 -3.2265625 -0.1328125 0 0 Z " fill="#211E45" transform="translate(379.2265625,287.1328125)"/>
<path d="M0 0 C4.46559765 2.44150841 8.15603803 5.13700226 10 10 C10.69671833 14.90943384 10.53659091 18.88554196 8.375 23.375 C4.50879423 27.6481748 1.35378517 30.20485117 -4.5 30.5 C-10.35378517 30.20485117 -13.50879423 27.6481748 -17.375 23.375 C-19.58113052 18.79303661 -19.78966018 14.99846754 -19 10 C-16.92237851 5.51233759 -14.27371173 2.89492744 -9.91796875 0.703125 C-6.49223909 -0.55274331 -3.49801016 -0.88943712 0 0 Z " fill="#211D44" transform="translate(488,214)"/>
<path d="M0 0 C4.324855 2.20322802 7.60172751 4.75690252 10 9 C10.91810398 14.50862387 10.62272967 19.80285541 7.45703125 24.5234375 C4.02583607 28.00062725 -0.34018804 29.81001343 -5.1875 30.15625 C-11.07089593 29.71053819 -14.07413496 27.19150159 -17.8125 22.9375 C-19.68910397 18.29537438 -19.87999263 13.92091876 -19 9 C-14.79034796 1.32998674 -8.44972223 -1.1903087 0 0 Z " fill="#211E45" transform="translate(606,214)"/>
<path d="M0 0 C0.144375 0.61875 0.28875 1.2375 0.4375 1.875 C0.93152225 4.03258322 0.93152225 4.03258322 2 6 C2.66 6.33 3.32 6.66 4 7 C5.6525755 9.97322344 6.19146178 12.61112653 6 16 C3.78758224 20.36221991 1.0235174 24.16545326 -2 28 C-3.98 26.68 -5.96 25.36 -8 24 C-9.32 25.32 -10.64 26.64 -12 28 C-11.67 26.68 -11.34 25.36 -11 24 C-11.928125 24.99 -11.928125 24.99 -12.875 26 C-15 28 -15 28 -17 28 C-17.33 29.98 -17.66 31.96 -18 34 C-20.475 34.495 -20.475 34.495 -23 35 C-17.97494057 27.02171204 -12.80695736 19.14799759 -7.5625 11.3125 C-6.83095703 10.21744141 -6.09941406 9.12238281 -5.34570312 7.99414062 C-3.56486994 5.32871056 -1.78295434 2.66401144 0 0 Z " fill="#262248" transform="translate(816,122)"/>
<path d="M0 0 C0.33 0.66 0.66 1.32 1 2 C0.21625 2.2475 -0.5675 2.495 -1.375 2.75 C-4.45455085 4.21645279 -4.67019235 4.98576932 -6 8 C-7.29470975 9.37086915 -8.62150897 10.71340837 -10 12 C-9.67 12.99 -9.34 13.98 -9 15 C-7.35 14.34 -5.7 13.68 -4 13 C-3.34 13.66 -2.68 14.32 -2 15 C-1.01 14.67 -0.02 14.34 1 14 C-0.42857653 17.36048572 -2.16054598 19.27725861 -4.9375 21.625 C-5.62714844 22.21539063 -6.31679688 22.80578125 -7.02734375 23.4140625 C-9 25 -9 25 -12 27 C-12.70074844 23.846632 -13 21.27275026 -13 18 C-14.98 18.33 -16.96 18.66 -19 19 C-19 19.66 -19 20.32 -19 21 C-20.32 20.67 -21.64 20.34 -23 20 C-16.83460733 12.28860252 -8.95401005 4.47700502 0 0 Z " fill="#28254B" transform="translate(320,957)"/>
<path d="M0 0 C2.475 0.99 2.475 0.99 5 2 C5.33 1.34 5.66 0.68 6 0 C9.13506611 0.33589994 10.025249 1.02665172 12.25 3.375 C14 6 14 6 14 9 C12.68 9 11.36 9 10 9 C9.67 9.66 9.34 10.32 9 11 C6.9375 11.625 6.9375 11.625 5 12 C4.67 11.34 4.34 10.68 4 10 C2.33499557 9.65846063 0.66821323 9.32550502 -1 9 C-1.66 8.34 -2.32 7.68 -3 7 C-2.1654738 4.49642139 -1.20628008 2.33214148 0 0 Z " fill="#211D43" transform="translate(224,229)"/>
<path d="M0 0 C4.94938693 1.50431648 8.01238808 4.40382974 11.6875 7.875 C12.55858398 8.66970703 12.55858398 8.66970703 13.44726562 9.48046875 C18.82190372 14.48851304 18.82190372 14.48851304 20 18 C20 18.99 20 19.98 20 21 C19.34 21 18.68 21 18 21 C18 21.66 18 22.32 18 23 C14.50116255 21.41987986 13.69563342 20.39126684 12 17 C11.34 16.67 10.68 16.34 10 16 C10 15.01 10 14.02 10 13 C9.34 12.34 8.68 11.68 8 11 C7.01 11.495 7.01 11.495 6 12 C5.34 10.35 4.68 8.7 4 7 C4.66 7 5.32 7 6 7 C4.36526484 3.87525373 4.36526484 3.87525373 1.875 3.3125 C1.25625 3.209375 0.6375 3.10625 0 3 C0 2.01 0 1.02 0 0 Z " fill="#1F1C40" transform="translate(253,253)"/>
<path d="M0 0 C0.33 0.66 0.66 1.32 1 2 C1.66 2 2.32 2 3 2 C3 1.34 3 0.68 3 0 C3.99 0.33 4.98 0.66 6 1 C6 2.32 6 3.64 6 5 C7.65 5.33 9.3 5.66 11 6 C11 11.1 11 11.1 9 14 C7.1875 15.0625 7.1875 15.0625 5 15 C2.25 12.875 2.25 12.875 0 10 C-0.1875 7.375 -0.1875 7.375 0 5 C-0.66 4.01 -1.32 3.02 -2 2 C-1.34 2 -0.68 2 0 2 C0 1.34 0 0.68 0 0 Z " fill="#201C41" transform="translate(732,207)"/>
<path d="M0 0 C1 2 1 2 1 3 C1.65035814 4.34136367 2.3162955 5.67532254 3 7 C2.34 7 1.68 7 1 7 C1.66 9.31 2.32 11.62 3 14 C1.68 14.33 0.36 14.66 -1 15 C-0.67 13.68 -0.34 12.36 0 11 C-0.639375 10.87625 -1.27875 10.7525 -1.9375 10.625 C-2.618125 10.41875 -3.29875 10.2125 -4 10 C-4.33 9.34 -4.66 8.68 -5 8 C-5.78375 8.185625 -6.5675 8.37125 -7.375 8.5625 C-10 9 -10 9 -12 8 C-8.04 5.36 -4.08 2.72 0 0 Z " fill="#2E2A4E" transform="translate(393,163)"/>
<path d="M0 0 C1.485 0.99 1.485 0.99 3 2 C2.01 2 1.02 2 0 2 C0 1.34 0 0.68 0 0 Z M-2 3 C1 4 1 4 1 4 Z M-3 4 C-2 7 -2 7 -2 9 C-1.360625 9.20625 -0.72125 9.4125 -0.0625 9.625 C2 11 2 11 2.75 14.125 C2.87375 15.548125 2.87375 15.548125 3 17 C-1.47014404 14.49671934 -5.76946537 11.8891456 -10 9 C-9.01 8.67 -8.02 8.34 -7 8 C-7 7.34 -7 6.68 -7 6 C-5.68 5.34 -4.36 4.68 -3 4 Z " fill="#2C284B" transform="translate(384,612)"/>
<path d="M0 0 C3.7952131 1.49097658 5.61042731 3.75700849 8 7 C7.01 7.33 6.02 7.66 5 8 C5 7.34 5 6.68 5 6 C4.01 6 3.02 6 2 6 C1.67 6.99 1.34 7.98 1 9 C0.01 9 -0.98 9 -2 9 C-2.33 10.32 -2.66 11.64 -3 13 C-4.32 11.68 -5.64 10.36 -7 9 C-5.68 9 -4.36 9 -3 9 C-2.814375 7.329375 -2.814375 7.329375 -2.625 5.625 C-2 2 -2 2 0 0 Z " fill="#26234A" transform="translate(212,209)"/>
<path d="M0 0 C2.96175123 0.61277612 4.38058783 1.25372522 7 3 C7 3.66 7 4.32 7 5 C6.01 5.495 6.01 5.495 5 6 C5 6.99 5 7.98 5 9 C2.5 10.6875 2.5 10.6875 0 12 C-3.07692308 6.58461538 -3.07692308 6.58461538 -2.6875 3.625 C-2.460625 3.08875 -2.23375 2.5525 -2 2 C-1.34 2 -0.68 2 0 2 C0 1.34 0 0.68 0 0 Z " fill="#201B40" transform="translate(926,137)"/>
<path d="M0 0 C2.0625 0.6875 2.0625 0.6875 4 2 C4.33 3.32 4.66 4.64 5 6 C1.7 7.32 -1.6 8.64 -5 10 C-5.33 9.01 -5.66 8.02 -6 7 C-5.34 7 -4.68 7 -4 7 C-3.71125 6.030625 -3.4225 5.06125 -3.125 4.0625 C-2 1 -2 1 0 0 Z " fill="#312D4F" transform="translate(623,655)"/>
<path d="M0 0 C0.33 2.31 0.66 4.62 1 7 C-1.93836239 8.52359531 -4.92246295 9.78518275 -8 11 C-8.99 11.495 -8.99 11.495 -10 12 C-9.44520943 8.15114044 -7.75581685 6.40739482 -5 3.75 C-4.278125 3.04359375 -3.55625 2.3371875 -2.8125 1.609375 C-1 0 -1 0 0 0 Z " fill="#3A3557" transform="translate(349,198)"/>
<path d="M0 0 C4.2742558 1.5830577 6.26531794 4.50568404 9 8 C7.35 9.32 5.7 10.64 4 12 C4.50603992 9.83125748 4.99983813 8.00032373 6 6 C5.278125 6.350625 4.55625 6.70125 3.8125 7.0625 C0.6877295 8.10409017 -0.88161996 7.89096572 -4 7 C-3.67 6.34 -3.34 5.68 -3 5 C-2.34 5 -1.68 5 -1 5 C-0.67 3.35 -0.34 1.7 0 0 Z " fill="#353153" transform="translate(725,193)"/>
<path d="M0 0 C0.33 1.32 0.66 2.64 1 4 C0.236875 4.2475 -0.52625 4.495 -1.3125 4.75 C-4.2364045 6.10995558 -5.30004356 7.31585826 -7 10 C-8.32 9.34 -9.64 8.68 -11 8 C-4.94594595 0 -4.94594595 0 0 0 Z " fill="#342F53" transform="translate(373,179)"/>
<path d="M0 0 C0.33 0.66 0.66 1.32 1 2 C1.66 2 2.32 2 3 2 C3.66 3.98 4.32 5.96 5 8 C4.34 8.66 3.68 9.32 3 10 C2.67 9.01 2.34 8.02 2 7 C0.13803054 6.07606836 0.13803054 6.07606836 -2 6 C-2.99 6.66 -3.98 7.32 -5 8 C-5.33 7.01 -5.66 6.02 -6 5 C-5.67 4.34 -5.34 3.68 -5 3 C-4.34 3 -3.68 3 -3 3 C-2.67 2.34 -2.34 1.68 -2 1 C-1.34 0.67 -0.68 0.34 0 0 Z " fill="#1F1B40" transform="translate(157,138)"/>
<path d="M0 0 C0.66 0.66 1.32 1.32 2 2 C1.01 3.485 1.01 3.485 0 5 C-2.64 4.67 -5.28 4.34 -8 4 C-8 2.68 -8 1.36 -8 0 C-5.09288879 -1.4535556 -3.10402897 -0.71133997 0 0 Z " fill="#2D294C" transform="translate(745,948)"/>
<path d="M0 0 C0.94875 0.04125 1.8975 0.0825 2.875 0.125 C2.545 3.095 2.215 6.065 1.875 9.125 C-2.581025 6.8969875 -3.08236808 6.3464393 -5.125 2.125 C-3.125 0.125 -3.125 0.125 0 0 Z " fill="#1F1C41" transform="translate(878.125,198.875)"/>
<path d="M0 0 C0.33 0 0.66 0 1 0 C1.33663062 3.70293685 1.47736015 5.39534381 -0.875 8.375 C-3 10 -3 10 -5 10 C-5.33 11.98 -5.66 13.96 -6 16 C-7.65 16.33 -9.3 16.66 -11 17 C-8.67425568 13.3284598 -6.34082964 9.66194165 -4 6 C-3.56429687 5.31808594 -3.12859375 4.63617188 -2.6796875 3.93359375 C-1.81448045 2.60373847 -0.91217209 1.29809106 0 0 Z " fill="#3F3B58" transform="translate(804,140)"/>
<path d="M0 0 C7.23214286 5.89285714 7.23214286 5.89285714 9 10 C6.69 9.67 4.38 9.34 2 9 C1.34 6.03 0.68 3.06 0 0 Z " fill="#3C3858" transform="translate(736,203)"/>
<path d="M0 0 C0.66 0 1.32 0 2 0 C2.02705729 1.77074917 2.04642195 3.54161711 2.0625 5.3125 C2.07410156 6.29863281 2.08570313 7.28476562 2.09765625 8.30078125 C2 11 2 11 1 14 C0.34 14 -0.32 14 -1 14 C-1.02685938 11.85423363 -1.04633088 9.70837355 -1.0625 7.5625 C-1.07410156 6.36753906 -1.08570313 5.17257812 -1.09765625 3.94140625 C-1 1 -1 1 0 0 Z " fill="#201C42" transform="translate(805,370)"/>
<path d="M0 0 C2 2 2 2 2 5 C1.34 5.66 0.68 6.32 0 7 C0.33 7.66 0.66 8.32 1 9 C0.01 9 -0.98 9 -2 9 C-2.33 9.66 -2.66 10.32 -3 11 C-3.99 9.68 -4.98 8.36 -6 7 C-4.02 4.69 -2.04 2.38 0 0 Z " fill="#24214E" transform="translate(528,1010)"/>
<path d="M0 0 C0.99 0.33 1.98 0.66 3 1 C2.34 1 1.68 1 1 1 C1.66 2.98 2.32 4.96 3 7 C2.01 7.66 1.02 8.32 0 9 C-1.32 8.01 -2.64 7.02 -4 6 C-2.84826645 3.53199953 -1.95216435 1.95216435 0 0 Z " fill="#1F1C40" transform="translate(821,256)"/>
<path d="M0 0 C2.5625 2.25 2.5625 2.25 5 5 C4.8125 7.3125 4.8125 7.3125 4 9 C2.35 8.67 0.7 8.34 -1 8 C-1.33 6.02 -1.66 4.04 -2 2 C-1.34 2 -0.68 2 0 2 C0 1.34 0 0.68 0 0 Z " fill="#201C3F" transform="translate(789,491)"/>
<path d="M0 0 C1.32 0.99 2.64 1.98 4 3 C3.67 4.32 3.34 5.64 3 7 C1.02 7 -0.96 7 -3 7 C-3 3 -3 3 -1.5 1.25 C-1.005 0.8375 -0.51 0.425 0 0 Z " fill="#1F1C41" transform="translate(844,233)"/>
<path d="M0 0 C4 4.5 4 4.5 4 9 C2.02 9.99 2.02 9.99 0 11 C-1.0730756 7.7807732 -0.79946725 7.09793558 0 4 C-0.33 3.34 -0.66 2.68 -1 2 C-0.67 1.34 -0.34 0.68 0 0 Z " fill="#353151" transform="translate(264,123)"/>
<path d="M0 0 C1 2 1 2 1 6 C0.071875 6.4125 -0.85625 6.825 -1.8125 7.25 C-4.88054681 8.93441786 -6.19040465 10.08454083 -8 13 C-9.32 12.67 -10.64 12.34 -12 12 C-11.46890625 11.55269531 -10.9378125 11.10539063 -10.390625 10.64453125 C-6.52111681 7.33285362 -3.01412695 4.14442456 0 0 Z " fill="#5E63EA" transform="translate(348,216)"/>
<path d="M0 0 C0 1.32 0 2.64 0 4 C-0.99 4.495 -0.99 4.495 -2 5 C-4.625 4.0625 -4.625 4.0625 -7 3 C-7 2.01 -7 1.02 -7 0 C-2.25 -1.125 -2.25 -1.125 0 0 Z " fill="#2C284C" transform="translate(459,658)"/>
<path d="M0 0 C0.33 1.65 0.66 3.3 1 5 C-0.65 5.66 -2.3 6.32 -4 7 C-4 6.34 -4 5.68 -4 5 C-4.99 4.67 -5.98 4.34 -7 4 C-2.25 0 -2.25 0 0 0 Z " fill="#23204B" transform="translate(807,271)"/>
<path d="M0 0 C-2.475 4.455 -2.475 4.455 -5 9 C-5.33 9 -5.66 9 -6 9 C-6 6 -6 3 -6 0 C-4 -1 -4 -1 0 0 Z " fill="#393555" transform="translate(951,115)"/>
<path d="M0 0 C2.97 0.495 2.97 0.495 6 1 C5.01 1.495 5.01 1.495 4 2 C4 2.66 4 3.32 4 4 C5.32 3.34 6.64 2.68 8 2 C7.34 3.32 6.68 4.64 6 6 C5.01 6 4.02 6 3 6 C3 5.34 3 4.68 3 4 C1.68 3.67 0.36 3.34 -1 3 C-0.67 2.01 -0.34 1.02 0 0 Z " fill="#201C3F" transform="translate(680,169)"/>
<path d="M0 0 C0.66 0.66 1.32 1.32 2 2 C1.875 3.9375 1.875 3.9375 1 6 C-1.0625 7.75 -1.0625 7.75 -3 9 C-3.66 8.34 -4.32 7.68 -5 7 C-4.67 6.01 -4.34 5.02 -4 4 C-3.01 4 -2.02 4 -1 4 C-0.67 2.68 -0.34 1.36 0 0 Z " fill="#2E2B4C" transform="translate(875,212)"/>
<path d="M0 0 C-0.33 0.99 -0.66 1.98 -1 3 C-4.63 3 -8.26 3 -12 3 C-12 2.34 -12 1.68 -12 1 C-7.93631321 0.22596442 -4.13574827 -0.0984702 0 0 Z " fill="#201C41" transform="translate(521,132)"/>
<path d="M0 0 C1 2 1 2 0.25 5.5625 C-0.1625 6.696875 -0.575 7.83125 -1 9 C-1.99 9.33 -2.98 9.66 -4 10 C-4.33 10.66 -4.66 11.32 -5 12 C-5.33 11.34 -5.66 10.68 -6 10 C-4.78515625 7.6171875 -4.78515625 7.6171875 -3.0625 4.875 C-2.21365234 3.50988281 -2.21365234 3.50988281 -1.34765625 2.1171875 C-0.90292969 1.41851562 -0.45820312 0.71984375 0 0 Z " fill="#6267F2" transform="translate(846,97)"/>
<path d="M0 0 C3.61253632 0.48167151 4.22740677 1.22740677 7 4 C1.72 3.67 -3.56 3.34 -9 3 C-9 2.67 -9 2.34 -9 2 C-6.94921875 1.77213542 -4.8984375 1.54427083 -2.84765625 1.31640625 C-0.98859771 1.18113386 -0.98859771 1.18113386 0 0 Z " fill="#29265A" transform="translate(462,939)"/>
<path d="M0 0 C0.1875 2.375 0.1875 2.375 0 5 C-0.99 5.66 -1.98 6.32 -3 7 C-4.32 5.35 -5.64 3.7 -7 2 C-4.35261084 0.5393715 -3.10551666 0 0 0 Z " fill="#2C284C" transform="translate(276,280)"/>
<path d="M0 0 C0.99 0.33 1.98 0.66 3 1 C3 1.66 3 2.32 3 3 C3.99 2.67 4.98 2.34 6 2 C5.67 3.98 5.34 5.96 5 8 C3.02 6.35 1.04 4.7 -1 3 C-0.67 2.01 -0.34 1.02 0 0 Z " fill="#3C3958" transform="translate(226,238)"/>
<path d="M0 0 C0.33 0.66 0.66 1.32 1 2 C1.99 2 2.98 2 4 2 C3.67 3.32 3.34 4.64 3 6 C-2.75 4.25 -2.75 4.25 -5 2 C-3.35 1.34 -1.7 0.68 0 0 Z " fill="#23204E" transform="translate(738,955)"/>
<path d="M0 0 C2.125 0.375 2.125 0.375 4 1 C4 1.99 4 2.98 4 4 C4.763125 3.79375 5.52625 3.5875 6.3125 3.375 C9 3 9 3 12 5 C6.49633208 5.32374517 2.56327794 5.53286034 -2 2 C-1.34 1.34 -0.68 0.68 0 0 Z " fill="#272455" transform="translate(476,239)"/>
<path d="M0 0 C1.98 0.66 3.96 1.32 6 2 C5.34 3.65 4.68 5.3 4 7 C2.68 6.67 1.36 6.34 0 6 C0 4.02 0 2.04 0 0 Z " fill="#1F1C40" transform="translate(137,112)"/>
<path d="M0 0 C0.66 0.33 1.32 0.66 2 1 C1.2884375 1.6496875 1.2884375 1.6496875 0.5625 2.3125 C-1.23686957 4.02309613 -1.23686957 4.02309613 -2 7 C-4.97 6.505 -4.97 6.505 -8 6 C-5.63404067 3.38499232 -3.13950774 1.61000397 0 0 Z " fill="#5D61E8" transform="translate(888,38)"/>
<path d="M0 0 C5.875 2.75 5.875 2.75 7 5 C5.02 5.33 3.04 5.66 1 6 C1 5.34 1 4.68 1 4 C0.34 4 -0.32 4 -1 4 C-0.67 2.68 -0.34 1.36 0 0 Z " fill="#1F1B3E" transform="translate(554,1017)"/>
<path d="M0 0 C2.64752004 2.57784846 4.94432065 4.91648098 7 8 C6.01 8.66 5.02 9.32 4 10 C0 3.375 0 3.375 0 0 Z " fill="#5D63EB" transform="translate(768,980)"/>
<path d="M0 0 C7.48291572 6.15034169 7.48291572 6.15034169 10 10 C9.401875 9.690625 8.80375 9.38125 8.1875 9.0625 C5.91043228 7.89790296 5.91043228 7.89790296 3 7 C0 2.66666667 0 2.66666667 0 0 Z " fill="#232452" transform="translate(262,259)"/>
<path d="M0 0 C-0.66 1.65 -1.32 3.3 -2 5 C-3.65 3.35 -5.3 1.7 -7 0 C-4.3333581 -1.33332095 -2.83319697 -0.67102033 0 0 Z " fill="#3C3958" transform="translate(253,261)"/>
<path d="M0 0 C0.66 0.33 1.32 0.66 2 1 C1.360625 1.598125 0.72125 2.19625 0.0625 2.8125 C-2.20310389 4.90810337 -2.20310389 4.90810337 -3 8 C-6.0625 9.1875 -6.0625 9.1875 -9 10 C-8.06409496 8.8944811 -7.12620142 7.79064547 -6.1875 6.6875 C-5.66542969 6.07261719 -5.14335937 5.45773438 -4.60546875 4.82421875 C-3.12827531 3.14575321 -1.59960869 1.56117966 0 0 Z " fill="#5E61E8" transform="translate(361,203)"/>
<path d="M0 0 C0 0.66 0 1.32 0 2 C-1.8125 3.6875 -1.8125 3.6875 -4 5 C-4.99 4.67 -5.98 4.34 -7 4 C-7 2.68 -7 1.36 -7 0 C-3.86650268 -1.04449911 -3.01031744 -0.93423645 0 0 Z " fill="#5F67F0" transform="translate(470,145)"/>
<path d="M0 0 C-0.1875 1.8125 -0.1875 1.8125 -1 4 C-3.5625 5.75 -3.5625 5.75 -6 7 C-6 5.68 -6 4.36 -6 3 C-5.34 3 -4.68 3 -4 3 C-4 2.34 -4 1.68 -4 1 C-2 0 -2 0 0 0 Z " fill="#332F50" transform="translate(521,1034)"/>
<path d="M0 0 C0.33 0.66 0.66 1.32 1 2 C0.21625 2.2475 -0.5675 2.495 -1.375 2.75 C-4.40937999 4.19494285 -4.67029725 5.05565819 -6 8 C-6.99 8.33 -7.98 8.66 -9 9 C-9 8.01 -9 7.02 -9 6 C-7.03125 4.39453125 -7.03125 4.39453125 -4.5 2.8125 C-3.6646875 2.28269531 -2.829375 1.75289062 -1.96875 1.20703125 C-1.3190625 0.80871094 -0.669375 0.41039062 0 0 Z " fill="#403D5A" transform="translate(320,957)"/>
<path d="M0 0 C1.62418745 -0.08090971 3.24951745 -0.13914995 4.875 -0.1875 C5.77992188 -0.22230469 6.68484375 -0.25710938 7.6171875 -0.29296875 C8.79667969 -0.14794922 8.79667969 -0.14794922 10 0 C10.66 0.99 11.32 1.98 12 3 C9.36 3 6.72 3 4 3 C4 2.34 4 1.68 4 1 C2.68 0.67 1.36 0.34 0 0 Z " fill="#444061" transform="translate(444,928)"/>
<path d="M0 0 C0.99 0.33 1.98 0.66 3 1 C1.25 6.75 1.25 6.75 -1 9 C-1.625 5.625 -1.625 5.625 -2 2 C-1.34 1.34 -0.68 0.68 0 0 Z " fill="#332E4F" transform="translate(780,529)"/>
<path d="M0 0 C0.66 0 1.32 0 2 0 C2.25 2.3125 2.25 2.3125 2 5 C0 6.8125 0 6.8125 -2 8 C-2.66 7.34 -3.32 6.68 -4 6 C-2.7260411 3.96166576 -1.38938077 1.96147874 0 0 Z " fill="#6067F0" transform="translate(497,234)"/>
<path d="M0 0 C0.33 0.66 0.66 1.32 1 2 C0.67 2.99 0.34 3.98 0 5 C0.66 5.33 1.32 5.66 2 6 C1.01 6 0.02 6 -1 6 C-1.33 7.32 -1.66 8.64 -2 10 C-2.33 9.34 -2.66 8.68 -3 8 C-3.99 8.495 -3.99 8.495 -5 9 C-3.7508258 5.54074837 -2.32472205 2.85306797 0 0 Z " fill="#6167F2" transform="translate(821,138)"/>
<path d="M0 0 C0.66 0.66 1.32 1.32 2 2 C0.35 4.64 -1.3 7.28 -3 10 C-3.66 9.67 -4.32 9.34 -5 9 C-4.67 8.01 -4.34 7.02 -4 6 C-3.34 6 -2.68 6 -2 6 C-2.33 5.01 -2.66 4.02 -3 3 C-2.01 2.01 -1.02 1.02 0 0 Z " fill="#3A3557" transform="translate(935,136)"/>
<path d="M0 0 C1.9375 0.75 1.9375 0.75 4 2 C4.75 4.125 4.75 4.125 5 6 C3.35 6 1.7 6 0 6 C-1.125 2.25 -1.125 2.25 0 0 Z " fill="#1F1B3F" transform="translate(937,35)"/>
<path d="M0 0 C0.66 0.33 1.32 0.66 2 1 C2 3.31 2 5.62 2 8 C1.01 8.33 0.02 8.66 -1 9 C-0.67 6.03 -0.34 3.06 0 0 Z " fill="#433F5F" transform="translate(285,1003)"/>
<path d="M0 0 C0.94875 0.04125 1.8975 0.0825 2.875 0.125 C0.895 3.095 0.895 3.095 -1.125 6.125 C-1.785 5.795 -2.445 5.465 -3.125 5.125 C-2.795 4.465 -2.465 3.805 -2.125 3.125 C-3.115 2.795 -4.105 2.465 -5.125 2.125 C-3.125 0.125 -3.125 0.125 0 0 Z " fill="#1E1B40" transform="translate(629.125,653.875)"/>
<path d="M0 0 C0.66 0 1.32 0 2 0 C2 2.31 2 4.62 2 7 C-0.31 6.01 -2.62 5.02 -5 4 C-2 2 -2 2 0 2 C0 1.34 0 0.68 0 0 Z " fill="#2F2B4C" transform="translate(403,633)"/>
<path d="M0 0 C0.99 0.66 1.98 1.32 3 2 C0.03 4.475 0.03 4.475 -3 7 C-3.66 6.67 -4.32 6.34 -5 6 C-4.67 5.01 -4.34 4.02 -4 3 C-1.9375 2.3125 -1.9375 2.3125 0 2 C0 1.34 0 0.68 0 0 Z " fill="#5F64EC" transform="translate(818,255)"/>
<path d="M0 0 C2.01782732 2.90567134 3.35494404 5.51669784 4 9 C2 8 2 8 0.5625 5.9375 C0.046875 5.298125 -0.46875 4.65875 -1 4 C-1.99 4 -2.98 4 -4 4 C-4 3.01 -4 2.02 -4 1 C-2 0 -2 0 0 0 Z " fill="#201C40" transform="translate(242,239)"/>
<path d="M0 0 C0.66 0.99 1.32 1.98 2 3 C0.38405168 5.04119788 -1.2856382 7.04072937 -3 9 C-3.66 9 -4.32 9 -5 9 C-3.7508258 5.54074837 -2.32472205 2.85306797 0 0 Z " fill="#5E62E6" transform="translate(872,50)"/>
<path d="M0 0 C1.32 0.66 2.64 1.32 4 2 C3.67 3.65 3.34 5.3 3 7 C2.34 6.67 1.68 6.34 1 6 C0.34 6 -0.32 6 -1 6 C-0.67 4.02 -0.34 2.04 0 0 Z " fill="#201C3F" transform="translate(865,49)"/>
<path d="M0 0 C0.66 0 1.32 0 2 0 C2.625 2.875 2.625 2.875 3 6 C2.34 6.66 1.68 7.32 1 8 C0.01 6.02 -0.98 4.04 -2 2 C-1.34 1.34 -0.68 0.68 0 0 Z " fill="#373355" transform="translate(299,529)"/>
<path d="M0 0 C0.99 0.66 1.98 1.32 3 2 C1.35 4.31 -0.3 6.62 -2 9 C-2.66 8.67 -3.32 8.34 -4 8 C-2.68 5.36 -1.36 2.72 0 0 Z " fill="#262453" transform="translate(775,518)"/>
<path d="M0 0 C0.66 1.32 1.32 2.64 2 4 C-1.75 7 -1.75 7 -4 7 C-3.43628586 3.73045798 -2.50037734 2.17424117 0 0 Z " fill="#201B3F" transform="translate(829,250)"/>
<path d="M0 0 C1.2077558 3.62326739 0.54311128 4.64146369 -1 8 C-2.32 7.34 -3.64 6.68 -5 6 C-5 5.34 -5 4.68 -5 4 C-3.35 3.34 -1.7 2.68 0 2 C0 1.34 0 0.68 0 0 Z " fill="#201B3F" transform="translate(776,182)"/>
<path d="M0 0 C2.31 0 4.62 0 7 0 C5.515 2.475 5.515 2.475 4 5 C2.68 4.67 1.36 4.34 0 4 C0 2.68 0 1.36 0 0 Z " fill="#1F1C3E" transform="translate(410,160)"/>
<path d="M0 0 C0.66 1.32 1.32 2.64 2 4 C-2.75 7.875 -2.75 7.875 -5 9 C-3.7508258 5.54074837 -2.32472205 2.85306797 0 0 Z " fill="#353052" transform="translate(863,41)"/>
<path d="M0 0 C1.65 0 3.3 0 5 0 C3.25 3.875 3.25 3.875 1 5 C0.67 4.34 0.34 3.68 0 3 C-0.99 3.495 -0.99 3.495 -2 4 C-1.34 2.68 -0.68 1.36 0 0 Z " fill="#6066EF" transform="translate(517,1017)"/>
<path d="M0 0 C1.485 0.99 1.485 0.99 3 2 C2.67 3.98 2.34 5.96 2 8 C0.4375 6.25 0.4375 6.25 -1 4 C-0.6875 1.75 -0.6875 1.75 0 0 Z " fill="#241F4E" transform="translate(532,1000)"/>
<path d="M0 0 C1.32 0.66 2.64 1.32 4 2 C4 2.99 4 3.98 4 5 C2.35 4.67 0.7 4.34 -1 4 C-0.67 2.68 -0.34 1.36 0 0 Z " fill="#211D41" transform="translate(763,971)"/>
<path d="M0 0 C-1.32 0.33 -2.64 0.66 -4 1 C-4 1.66 -4 2.32 -4 3 C-6.31 3 -8.62 3 -11 3 C-8.21756596 -1.17365106 -4.53441502 -0.22300402 0 0 Z " fill="#423E5F" transform="translate(420,928)"/>
<path d="M0 0 C1.32 0 2.64 0 4 0 C4.33 0.99 4.66 1.98 5 3 C4.01 3.495 4.01 3.495 3 4 C2.01 5.485 2.01 5.485 1 7 C0.34 5.02 -0.32 3.04 -1 1 C-0.67 0.67 -0.34 0.34 0 0 Z " fill="#312D4F" transform="translate(290,514)"/>
<path d="M0 0 C0.99 1.32 1.98 2.64 3 4 C2.67 4.66 2.34 5.32 2 6 C1.34 6 0.68 6 0 6 C-0.33 6.66 -0.66 7.32 -1 8 C-1.625 5.6875 -1.625 5.6875 -2 3 C-1.34 2.01 -0.68 1.02 0 0 Z " fill="#363253" transform="translate(275,469)"/>
<path d="M0 0 C1.32 0.99 2.64 1.98 4 3 C2.35 4.32 0.7 5.64 -1 7 C-1.66 6.67 -2.32 6.34 -3 6 C-2.01 4.02 -1.02 2.04 0 0 Z " fill="#393457" transform="translate(835,90)"/>
<path d="M0 0 C2.97 0.495 2.97 0.495 6 1 C5.67 2.32 5.34 3.64 5 5 C4.401875 4.835 3.80375 4.67 3.1875 4.5 C0.88655664 3.8885876 0.88655664 3.8885876 -2 4 C-1.34 2.68 -0.68 1.36 0 0 Z " fill="#302C4F" transform="translate(838,85)"/>
<path d="M0 0 C1 3 1 3 -0.25 6.625 C-2 10 -2 10 -5 11 C-3.55049545 7.2089881 -1.84827434 3.6125362 0 0 Z " fill="#403C59" transform="translate(844,74)"/>
<path d="M0 0 C1 3 1 3 0 6 C-1.65 6.33 -3.3 6.66 -5 7 C-1.125 1.125 -1.125 1.125 0 0 Z " fill="#5F64EF" transform="translate(308,984)"/>
<path d="M0 0 C1.32 0.33 2.64 0.66 4 1 C2.35 2.65 0.7 4.3 -1 6 C-1 2 -1 2 0 0 Z " fill="#312D4F" transform="translate(756,566)"/>
<path d="M0 0 C0 0.66 0 1.32 0 2 C0.66 2.33 1.32 2.66 2 3 C-0.64 3.33 -3.28 3.66 -6 4 C-6.33 3.01 -6.66 2.02 -7 1 C-4.50935112 0.31292445 -2.62113708 0 0 0 Z " fill="#262350" transform="translate(612,331)"/>
<path d="M0 0 C0.99 0.33 1.98 0.66 3 1 C1.35 2.98 -0.3 4.96 -2 7 C-2.33 6.01 -2.66 5.02 -3 4 C-1.5625 1.8125 -1.5625 1.8125 0 0 Z " fill="#25224E" transform="translate(494,235)"/>
<path d="M0 0 C2.5 1.25 2.5 1.25 5 3 C5 4.32 5 5.64 5 7 C3.29115995 5.37660195 1.62553283 3.70680947 0 2 C0 1.34 0 0.68 0 0 Z " fill="#23224F" transform="translate(490,216)"/>
<path d="M0 0 C0.99 0 1.98 0 3 0 C3.33 1.32 3.66 2.64 4 4 C2.68 4.33 1.36 4.66 0 5 C-0.5625 3.0625 -0.5625 3.0625 -1 1 C-0.67 0.67 -0.34 0.34 0 0 Z " fill="#2C294B" transform="translate(370,179)"/>
<path d="M0 0 C0.99 0.33 1.98 0.66 3 1 C1.84826645 3.46800047 0.95216435 5.04783565 -1 7 C-1.33 5.35 -1.66 3.7 -2 2 C-1.34 2 -0.68 2 0 2 C0 1.34 0 0.68 0 0 Z " fill="#322E50" transform="translate(909,171)"/>
<path d="M0 0 C0.33 0.99 0.66 1.98 1 3 C-0.9375 6.1875 -0.9375 6.1875 -3 9 C-3.99 8.67 -4.98 8.34 -6 8 C-4.02 5.36 -2.04 2.72 0 0 Z " fill="#4E4A66" transform="translate(788,163)"/>
<path d="M0 0 C0.99 0.33 1.98 0.66 3 1 C2.34 2.98 1.68 4.96 1 7 C0.34 7 -0.32 7 -1 7 C-0.67 4.69 -0.34 2.38 0 0 Z " fill="#1F1C42" transform="translate(146,121)"/>
<path d="M0 0 C0.66 0.66 1.32 1.32 2 2 C-0.57784846 4.64752004 -2.91648098 6.94432065 -6 9 C-4.68775452 5.06326356 -3.08089673 2.77280706 0 0 Z " fill="#6066F0" transform="translate(835,118)"/>
<path d="M0 0 C0.33 0 0.66 0 1 0 C1 3.3 1 6.6 1 10 C0.34 9.67 -0.32 9.34 -1 9 C-1.75 6.125 -1.75 6.125 -2 3 C-1.34 2.01 -0.68 1.02 0 0 Z " fill="#211B3D" transform="translate(806,412)"/>
<path d="M0 0 C2.97 0.495 2.97 0.495 6 1 C3.61426621 2.89213369 1.92824652 4.02391783 -1 5 C-0.67 3.35 -0.34 1.7 0 0 Z " fill="#6064EF" transform="translate(682,292)"/>
<path d="M0 0 C1.67542976 0.28604898 3.34385343 0.61781233 5 1 C4 3 4 3 0.9375 4.125 C-0.031875 4.41375 -1.00125 4.7025 -2 5 C-1.125 1.125 -1.125 1.125 0 0 Z " fill="#201B41" transform="translate(869,206)"/>
<path d="M0 0 C1.65 0.33 3.3 0.66 5 1 C5 1.99 5 2.98 5 4 C3.35 4 1.7 4 0 4 C-0.33 3.34 -0.66 2.68 -1 2 C-0.67 1.34 -0.34 0.68 0 0 Z " fill="#332F51" transform="translate(667,153)"/>
<path d="M0 0 C0.99 1.32 1.98 2.64 3 4 C2.01 4.99 1.02 5.98 0 7 C-0.66 6.67 -1.32 6.34 -2 6 C-1.49396008 3.83125748 -1.00016187 2.00032373 0 0 Z " fill="#6066F5" transform="translate(765,529)"/>
<path d="M0 0 C0.66 0.33 1.32 0.66 2 1 C-0.39509338 3.89932357 -2.31245243 4.50168276 -6 5 C-6.33 4.34 -6.66 3.68 -7 3 C-4.69631264 1.93347808 -2.35981813 0.93578995 0 0 Z " fill="#5F63EB" transform="translate(679,311)"/>
<path d="M0 0 C1.98 0.66 3.96 1.32 6 2 C5.01 3.485 5.01 3.485 4 5 C2.0625 4.625 2.0625 4.625 0 4 C-0.33 3.34 -0.66 2.68 -1 2 C-0.67 1.34 -0.34 0.68 0 0 Z " fill="#25214F" transform="translate(417,305)"/>
<path d="M0 0 C0.66 0 1.32 0 2 0 C2 1.65 2 3.3 2 5 C1.01 4.67 0.02 4.34 -1 4 C-1 4.66 -1 5.32 -1 6 C-1.99 5.67 -2.98 5.34 -4 5 C-2.71937515 3.2925002 -1.38232443 1.62626404 0 0 Z " fill="#211C3D" transform="translate(703,288)"/>
<path d="M0 0 C0.33 0.99 0.66 1.98 1 3 C0.01 3.66 -0.98 4.32 -2 5 C-3.32 4.01 -4.64 3.02 -6 2 C-4.02 1.34 -2.04 0.68 0 0 Z " fill="#5B63E6" transform="translate(609,241)"/>
<path d="M0 0 C1.8125 0.1875 1.8125 0.1875 4 1 C5.75 3.5625 5.75 3.5625 7 6 C6.34 6 5.68 6 5 6 C4.67 5.34 4.34 4.68 4 4 C2.68 4 1.36 4 0 4 C0 2.68 0 1.36 0 0 Z " fill="#29265C" transform="translate(202,198)"/>
<path d="M0 0 C1.65 1.65 3.3 3.3 5 5 C3.68 5.33 2.36 5.66 1 6 C0.67 4.02 0.34 2.04 0 0 Z " fill="#383455" transform="translate(297,171)"/>
<path d="M0 0 C1.98 0.66 3.96 1.32 6 2 C5.67 3.32 5.34 4.64 5 6 C4.01 5.67 3.02 5.34 2 5 C0.8125 2.4375 0.8125 2.4375 0 0 Z " fill="#373254" transform="translate(192,25)"/>
</svg>
