<svg xmlns="http://www.w3.org/2000/svg" xmlns:xlink="http://www.w3.org/1999/xlink" width="500" zoomAndPan="magnify" viewBox="0 0 375 89.999999" height="120" preserveAspectRatio="xMidYMid meet" version="1.0"><defs><g/><clipPath id="1bed916f29"><path d="M 32.210938 16.25 L 43.285156 16.25 L 43.285156 73.75 L 32.210938 73.75 Z M 32.210938 16.25 " clip-rule="nonzero"/></clipPath><clipPath id="dd6d3ad2de"><path d="M 8.996094 39.460938 L 66.492188 39.460938 L 66.492188 50.539062 L 8.996094 50.539062 Z M 8.996094 39.460938 " clip-rule="nonzero"/></clipPath><clipPath id="9a5b57731d"><path d="M 13 39 L 44 39 L 44 70 L 13 70 Z M 13 39 " clip-rule="nonzero"/></clipPath><clipPath id="1ca9706567"><path d="M 35.449219 39.460938 L 43.28125 47.292969 L 21.332031 69.242188 L 13.5 61.410156 Z M 35.449219 39.460938 " clip-rule="nonzero"/></clipPath><clipPath id="05d1f765df"><path d="M 13 20 L 62 20 L 62 70 L 13 70 Z M 13 20 " clip-rule="nonzero"/></clipPath><clipPath id="8606eb4fbb"><path d="M 61.988281 61.410156 L 54.15625 69.242188 L 13.5 28.585938 L 21.332031 20.753906 Z M 61.988281 61.410156 " clip-rule="nonzero"/></clipPath><clipPath id="37d947fd5f"><path d="M 49 20 L 62 20 L 62 33 L 49 33 Z M 49 20 " clip-rule="nonzero"/></clipPath><clipPath id="fd7eb2353a"><path d="M 53.765625 36.804688 L 45.933594 28.972656 L 54.164062 20.742188 L 61.996094 28.574219 Z M 53.765625 36.804688 " clip-rule="nonzero"/></clipPath><clipPath id="50e1257bbb"><path d="M 49.851562 32.890625 L 54.160156 20.75 L 61.992188 28.582031 Z M 49.851562 32.890625 " clip-rule="nonzero"/></clipPath></defs><g clip-path="url(#1bed916f29)"><path fill="#eff0fb" d="M 32.210938 16.25 L 43.285156 16.25 L 43.285156 73.761719 L 32.210938 73.761719 Z M 32.210938 16.25 " fill-opacity="1" fill-rule="nonzero"/></g><g clip-path="url(#dd6d3ad2de)"><path fill="#eff0fb" d="M 66.492188 39.460938 L 66.492188 50.539062 L 8.984375 50.539062 L 8.984375 39.460938 Z M 66.492188 39.460938 " fill-opacity="1" fill-rule="nonzero"/></g><g clip-path="url(#9a5b57731d)"><g clip-path="url(#1ca9706567)"><path fill="#eff0fb" d="M 35.449219 39.460938 L 43.28125 47.292969 L 21.34375 69.230469 L 13.511719 61.398438 Z M 35.449219 39.460938 " fill-opacity="1" fill-rule="nonzero"/></g></g><g clip-path="url(#05d1f765df)"><g clip-path="url(#8606eb4fbb)"><path fill="#eff0fb" d="M 61.988281 61.410156 L 54.15625 69.242188 L 13.492188 28.578125 L 21.324219 20.746094 Z M 61.988281 61.410156 " fill-opacity="1" fill-rule="nonzero"/></g></g><g clip-path="url(#37d947fd5f)"><g clip-path="url(#fd7eb2353a)"><g clip-path="url(#50e1257bbb)"><path fill="#eff0fb" d="M 53.765625 36.804688 L 45.933594 28.972656 L 54.164062 20.742188 L 61.996094 28.574219 Z M 53.765625 36.804688 " fill-opacity="1" fill-rule="nonzero"/></g></g></g><g fill="#f9f9ff" fill-opacity="1"><g transform="translate(79.891901, 63.302879)"><g><path d="M 35.140625 -23.09375 L 11.828125 -23.09375 L 11.828125 -18.59375 C 13.285156 -18.570312 15.472656 -18.5625 18.390625 -18.5625 C 23.421875 -18.5625 28.535156 -18.644531 33.734375 -18.8125 L 33.734375 -10.421875 C 28.535156 -10.617188 23.046875 -10.71875 17.265625 -10.71875 C 14.867188 -10.71875 13.054688 -10.703125 11.828125 -10.671875 L 11.828125 0 L 1.71875 0 C 1.945312 -5.539062 2.0625 -10.726562 2.0625 -15.5625 C 2.0625 -20.382812 1.945312 -25.566406 1.71875 -31.109375 L 35.140625 -31.109375 Z M 35.140625 -23.09375 "/></g></g></g><g fill="#f9f9ff" fill-opacity="1"><g transform="translate(116.747734, 63.302879)"><g><path d="M 15.515625 0.421875 C 10.628906 0.421875 7.035156 -0.695312 4.734375 -2.9375 C 2.429688 -5.175781 1.28125 -8.125 1.28125 -11.78125 C 1.28125 -15.351562 2.429688 -18.253906 4.734375 -20.484375 C 7.035156 -22.710938 10.628906 -23.828125 15.515625 -23.828125 C 18.796875 -23.828125 21.546875 -23.289062 23.765625 -22.21875 C 25.984375 -21.144531 27.617188 -19.703125 28.671875 -17.890625 C 29.734375 -16.078125 30.265625 -14.039062 30.265625 -11.78125 C 30.265625 -8.09375 29.039062 -5.132812 26.59375 -2.90625 C 24.15625 -0.6875 20.460938 0.421875 15.515625 0.421875 Z M 15.6875 -6.859375 C 17.539062 -6.859375 18.925781 -7.300781 19.84375 -8.1875 C 20.757812 -9.070312 21.21875 -10.257812 21.21875 -11.75 C 21.21875 -13.144531 20.757812 -14.289062 19.84375 -15.1875 C 18.925781 -16.09375 17.539062 -16.546875 15.6875 -16.546875 C 13.832031 -16.546875 12.472656 -16.101562 11.609375 -15.21875 C 10.753906 -14.332031 10.328125 -13.175781 10.328125 -11.75 C 10.328125 -10.257812 10.753906 -9.070312 11.609375 -8.1875 C 12.472656 -7.300781 13.832031 -6.859375 15.6875 -6.859375 Z M 15.6875 -6.859375 "/></g></g></g><g fill="#f9f9ff" fill-opacity="1"><g transform="translate(148.289473, 63.302879)"><g><path d="M 15.515625 0.421875 C 10.628906 0.421875 7.035156 -0.695312 4.734375 -2.9375 C 2.429688 -5.175781 1.28125 -8.125 1.28125 -11.78125 C 1.28125 -15.351562 2.429688 -18.253906 4.734375 -20.484375 C 7.035156 -22.710938 10.628906 -23.828125 15.515625 -23.828125 C 18.796875 -23.828125 21.546875 -23.289062 23.765625 -22.21875 C 25.984375 -21.144531 27.617188 -19.703125 28.671875 -17.890625 C 29.734375 -16.078125 30.265625 -14.039062 30.265625 -11.78125 C 30.265625 -8.09375 29.039062 -5.132812 26.59375 -2.90625 C 24.15625 -0.6875 20.460938 0.421875 15.515625 0.421875 Z M 15.6875 -6.859375 C 17.539062 -6.859375 18.925781 -7.300781 19.84375 -8.1875 C 20.757812 -9.070312 21.21875 -10.257812 21.21875 -11.75 C 21.21875 -13.144531 20.757812 -14.289062 19.84375 -15.1875 C 18.925781 -16.09375 17.539062 -16.546875 15.6875 -16.546875 C 13.832031 -16.546875 12.472656 -16.101562 11.609375 -15.21875 C 10.753906 -14.332031 10.328125 -13.175781 10.328125 -11.75 C 10.328125 -10.257812 10.753906 -9.070312 11.609375 -8.1875 C 12.472656 -7.300781 13.832031 -6.859375 15.6875 -6.859375 Z M 15.6875 -6.859375 "/></g></g></g><g fill="#f9f9ff" fill-opacity="1"><g transform="translate(179.831211, 63.302879)"><g><path d="M 21.125 -15.734375 C 18.5 -15.898438 16.097656 -16.023438 13.921875 -16.109375 L 13.890625 -11.578125 C 13.890625 -10.023438 14.222656 -8.8125 14.890625 -7.9375 C 15.566406 -7.070312 16.757812 -6.640625 18.46875 -6.640625 C 19.125 -6.640625 19.753906 -6.695312 20.359375 -6.8125 C 20.242188 -5.757812 20.1875 -4.6875 20.1875 -3.59375 C 20.1875 -3.082031 20.210938 -1.910156 20.265625 -0.078125 C 19.015625 0.140625 17.957031 0.273438 17.09375 0.328125 C 16.238281 0.390625 15.128906 0.421875 13.765625 0.421875 C 10.421875 0.421875 8.054688 -0.382812 6.671875 -2 C 5.285156 -3.613281 4.59375 -5.863281 4.59375 -8.75 L 4.625 -15.984375 C 3.28125 -15.929688 1.878906 -15.847656 0.421875 -15.734375 L 0.421875 -23.3125 C 1.910156 -23.3125 3.171875 -23.78125 4.203125 -24.71875 C 5.234375 -25.664062 5.847656 -26.796875 6.046875 -28.109375 L 17.703125 -28.109375 C 16.242188 -26.109375 14.628906 -24.507812 12.859375 -23.3125 L 21.125 -23.3125 Z M 21.125 -15.734375 "/></g></g></g><g fill="#f9f9ff" fill-opacity="1"><g transform="translate(201.816144, 63.302879)"><g><path d="M 1.71875 -3.6875 C 2.6875 -5.144531 3.488281 -6.5 4.125 -7.75 C 4.769531 -9.007812 5.394531 -10.46875 6 -12.125 C 8.03125 -10.957031 10.382812 -10.046875 13.0625 -9.390625 C 15.75 -8.734375 18.253906 -8.40625 20.578125 -8.40625 C 22.941406 -8.40625 24.609375 -8.609375 25.578125 -9.015625 C 26.554688 -9.429688 27.046875 -9.882812 27.046875 -10.375 C 27.046875 -12.113281 24.390625 -12.984375 19.078125 -12.984375 C 13.242188 -12.984375 9.007812 -13.585938 6.375 -14.796875 C 3.75 -16.015625 2.4375 -17.984375 2.4375 -20.703125 C 2.4375 -24.554688 4.035156 -27.394531 7.234375 -29.21875 C 10.441406 -31.050781 14.601562 -31.96875 19.71875 -31.96875 C 22.6875 -31.96875 25.734375 -31.585938 28.859375 -30.828125 C 31.992188 -30.078125 34.816406 -29.046875 37.328125 -27.734375 C 36.503906 -25.847656 35.632812 -23.546875 34.71875 -20.828125 C 34.539062 -20.253906 34.394531 -19.828125 34.28125 -19.546875 C 32.832031 -20.710938 30.632812 -21.6875 27.6875 -22.46875 C 24.738281 -23.257812 22.140625 -23.65625 19.890625 -23.65625 C 17.171875 -23.65625 15.335938 -23.476562 14.390625 -23.125 C 13.453125 -22.769531 12.984375 -22.25 12.984375 -21.5625 C 12.984375 -20.875 13.632812 -20.320312 14.9375 -19.90625 C 16.238281 -19.488281 18.117188 -19.28125 20.578125 -19.28125 C 26.628906 -19.28125 31.023438 -18.585938 33.765625 -17.203125 C 36.515625 -15.816406 37.890625 -13.695312 37.890625 -10.84375 C 37.890625 -6.84375 36.429688 -3.960938 33.515625 -2.203125 C 30.597656 -0.453125 26.179688 0.421875 20.265625 0.421875 C 17.097656 0.421875 13.867188 0.0703125 10.578125 -0.625 C 7.296875 -1.320312 4.34375 -2.34375 1.71875 -3.6875 Z M 1.71875 -3.6875 "/></g></g></g><g fill="#f9f9ff" fill-opacity="1"><g transform="translate(241.414737, 63.302879)"><g><path d="M 10.421875 -11.703125 C 10.472656 -10.242188 10.929688 -9.070312 11.796875 -8.1875 C 12.671875 -7.300781 13.96875 -6.859375 15.6875 -6.859375 C 16.625 -6.859375 17.460938 -7.035156 18.203125 -7.390625 C 18.953125 -7.742188 19.640625 -8.28125 20.265625 -9 C 22.703125 -8.0625 25.546875 -7.25 28.796875 -6.5625 C 27.859375 -4.351562 26.265625 -2.632812 24.015625 -1.40625 C 21.773438 -0.1875 18.867188 0.421875 15.296875 0.421875 C 10.523438 0.421875 6.992188 -0.6875 4.703125 -2.90625 C 2.421875 -5.132812 1.28125 -8.066406 1.28125 -11.703125 C 1.28125 -15.328125 2.421875 -18.253906 4.703125 -20.484375 C 6.992188 -22.710938 10.523438 -23.828125 15.296875 -23.828125 C 18.867188 -23.828125 21.773438 -23.210938 24.015625 -21.984375 C 26.265625 -20.753906 27.859375 -19.039062 28.796875 -16.84375 C 26.253906 -16.300781 23.410156 -15.488281 20.265625 -14.40625 C 19.640625 -15.113281 18.953125 -15.644531 18.203125 -16 C 17.460938 -16.363281 16.625 -16.546875 15.6875 -16.546875 C 13.96875 -16.546875 12.671875 -16.101562 11.796875 -15.21875 C 10.929688 -14.332031 10.472656 -13.160156 10.421875 -11.703125 Z M 10.421875 -11.703125 "/></g></g></g><g fill="#f9f9ff" fill-opacity="1"><g transform="translate(271.713654, 63.302879)"><g><path d="M 29.1875 -7.109375 C 29.1875 -6.140625 29.300781 -5.453125 29.53125 -5.046875 C 29.757812 -4.648438 30.21875 -4.367188 30.90625 -4.203125 L 30.734375 -0.171875 C 29.816406 -0.0234375 29.019531 0.0703125 28.34375 0.125 C 27.675781 0.1875 26.785156 0.21875 25.671875 0.21875 C 23.210938 0.21875 21.582031 -0.328125 20.78125 -1.421875 C 19.988281 -2.523438 19.59375 -3.9375 19.59375 -5.65625 L 19.59375 -6.734375 C 18.757812 -4.390625 17.550781 -2.644531 15.96875 -1.5 C 14.382812 -0.351562 12.363281 0.21875 9.90625 0.21875 C 7.039062 0.21875 4.882812 -0.351562 3.4375 -1.5 C 2 -2.644531 1.28125 -4.34375 1.28125 -6.59375 C 1.28125 -8.457031 1.894531 -9.914062 3.125 -10.96875 C 4.351562 -12.03125 6.253906 -12.757812 8.828125 -13.15625 C 6.660156 -14.695312 4.488281 -16.039062 2.3125 -17.1875 C 4.03125 -19.351562 5.988281 -21 8.1875 -22.125 C 10.382812 -23.257812 13.054688 -23.828125 16.203125 -23.828125 C 20.597656 -23.828125 23.859375 -22.875 25.984375 -20.96875 C 28.117188 -19.070312 29.1875 -16.15625 29.1875 -12.21875 Z M 17.09375 -16.28125 C 15.644531 -16.28125 14.363281 -16.035156 13.25 -15.546875 C 12.132812 -15.066406 11.132812 -14.34375 10.25 -13.375 C 11.957031 -13.570312 14.097656 -13.671875 16.671875 -13.671875 C 17.734375 -13.671875 18.476562 -13.796875 18.90625 -14.046875 C 19.332031 -14.304688 19.546875 -14.640625 19.546875 -15.046875 C 19.546875 -15.390625 19.332031 -15.679688 18.90625 -15.921875 C 18.476562 -16.160156 17.875 -16.28125 17.09375 -16.28125 Z M 12.59375 -6.765625 C 14.195312 -6.765625 15.640625 -7.070312 16.921875 -7.6875 C 18.210938 -8.300781 19.101562 -9.109375 19.59375 -10.109375 L 19.59375 -11.234375 C 18.90625 -10.890625 18.144531 -10.625 17.3125 -10.4375 C 16.488281 -10.25 15.488281 -10.070312 14.3125 -9.90625 L 12.765625 -9.640625 C 11.171875 -9.328125 10.375 -8.785156 10.375 -8.015625 C 10.375 -7.179688 11.113281 -6.765625 12.59375 -6.765625 Z M 12.59375 -6.765625 "/></g></g></g><g fill="#f9f9ff" fill-opacity="1"><g transform="translate(303.469661, 63.302879)"><g><path d="M 20.4375 -23.828125 C 22.300781 -23.828125 23.972656 -23.296875 25.453125 -22.234375 C 26.941406 -21.179688 28.097656 -19.75 28.921875 -17.9375 C 29.753906 -16.125 30.171875 -14.128906 30.171875 -11.953125 C 30.171875 -9.816406 29.753906 -7.796875 28.921875 -5.890625 C 28.097656 -3.992188 26.9375 -2.46875 25.4375 -1.3125 C 23.9375 -0.15625 22.226562 0.421875 20.3125 0.421875 C 18.082031 0.421875 16.175781 -0.0390625 14.59375 -0.96875 C 13.007812 -1.894531 11.832031 -3.328125 11.0625 -5.265625 C 11.0625 -3.640625 11.117188 -1.023438 11.234375 2.578125 C 11.347656 6.054688 11.40625 8.507812 11.40625 9.9375 L 1.71875 9.9375 C 1.882812 4.625 1.96875 -0.929688 1.96875 -6.734375 C 1.96875 -12.523438 1.882812 -18.082031 1.71875 -23.40625 L 9.9375 -23.40625 L 11.1875 -18.046875 C 11.988281 -20.046875 13.1875 -21.507812 14.78125 -22.4375 C 16.382812 -23.363281 18.269531 -23.828125 20.4375 -23.828125 Z M 15.859375 -7.28125 C 17.140625 -7.28125 18.21875 -7.6875 19.09375 -8.5 C 19.96875 -9.320312 20.40625 -10.390625 20.40625 -11.703125 C 20.40625 -13.160156 20.003906 -14.34375 19.203125 -15.25 C 18.398438 -16.164062 17.3125 -16.625 15.9375 -16.625 C 14.375 -16.625 13.191406 -16.242188 12.390625 -15.484375 C 11.585938 -14.734375 11.1875 -13.472656 11.1875 -11.703125 C 11.1875 -10.703125 11.441406 -9.863281 11.953125 -9.1875 C 12.472656 -8.519531 13.085938 -8.035156 13.796875 -7.734375 C 14.515625 -7.429688 15.203125 -7.28125 15.859375 -7.28125 Z M 15.859375 -7.28125 "/></g></g></g><g fill="#f9f9ff" fill-opacity="1"><g transform="translate(334.925694, 63.302879)"><g><path d="M 24.390625 -10.71875 L 10.421875 -10.71875 C 10.640625 -9.457031 11.195312 -8.429688 12.09375 -7.640625 C 13 -6.859375 14.28125 -6.46875 15.9375 -6.46875 C 17.144531 -6.46875 18.273438 -6.703125 19.328125 -7.171875 C 20.390625 -7.648438 21.234375 -8.316406 21.859375 -9.171875 C 23.773438 -8.222656 26.316406 -7.207031 29.484375 -6.125 C 28.597656 -4.125 26.988281 -2.53125 24.65625 -1.34375 C 22.332031 -0.164062 19.300781 0.421875 15.5625 0.421875 C 10.695312 0.421875 7.097656 -0.695312 4.765625 -2.9375 C 2.441406 -5.175781 1.28125 -8.125 1.28125 -11.78125 C 1.28125 -15.351562 2.4375 -18.253906 4.75 -20.484375 C 7.070312 -22.710938 10.675781 -23.828125 15.5625 -23.828125 C 18.46875 -23.828125 20.992188 -23.34375 23.140625 -22.375 C 25.285156 -21.40625 26.925781 -20.054688 28.0625 -18.328125 C 29.207031 -16.597656 29.78125 -14.617188 29.78125 -12.390625 C 29.78125 -11.640625 29.753906 -11.082031 29.703125 -10.71875 Z M 16.15625 -17.359375 C 14.726562 -17.359375 13.554688 -17.085938 12.640625 -16.546875 C 11.722656 -16.003906 11.082031 -15.257812 10.71875 -14.3125 L 20.828125 -14.3125 C 20.484375 -15.226562 19.925781 -15.960938 19.15625 -16.515625 C 18.382812 -17.078125 17.382812 -17.359375 16.15625 -17.359375 Z M 16.15625 -17.359375 "/></g></g></g></svg>